<?xml version="1.0" encoding="utf-8"?>
<!-- Generator: Adobe Illustrator 18.1.1, SVG Export Plug-In . SVG Version: 6.00 Build 0)  -->
<svg version="1.1" xmlns="http://www.w3.org/2000/svg" xmlns:xlink="http://www.w3.org/1999/xlink" x="0px" y="0px"
	 viewBox="0 0 2000 2000" enable-background="new 0 0 2000 2000" xml:space="preserve">
<g id="constellations">
	<g id="ursa_minor">
		<g id="lines_36_">
			<polyline fill="none" stroke="#000000" stroke-width="2" stroke-miterlimit="10" points="1000,1000 1013.1,1026.6 1029.1,1049.6 
				1060.1,1061.6 1057.1,1084.6 1096.8,1082.9 1094.9,1058.8 1060.2,1061.6 			"/>
		</g>
		<g id="stars_46_">
			<g>
				<circle cx="1013.1" cy="1026.6" r="5.6"/>
			</g>
			<g>
				<circle cx="1029.1" cy="1049.6" r="5.6"/>
			</g>
			<g>
				<circle cx="1060.1" cy="1061.6" r="5.6"/>
			</g>
			<g>
				<circle cx="1057.1" cy="1084.6" r="5.6"/>
			</g>
			<g>
				<circle cx="1094.9" cy="1058.8" r="7.4"/>
			</g>
			<g>
				<circle cx="1096.8" cy="1082.9" r="5.3"/>
			</g>
			<path id="polaris" d="M1002.1,989.4l1.7,5.1c0.3,0.9,1.1,1.5,2.1,1.5h4.7c2.2,0,3,2.8,1.2,4l-3.4,2.2c-0.8,0.5-1.2,1.6-0.9,2.5l1.5,4.3
				c0.7,2-1.7,3.7-3.4,2.5l-4.2-3.1c-0.8-0.6-1.8-0.6-2.6,0l-4.2,3c-1.7,1.2-4-0.5-3.3-2.5l1.4-4.1c0.3-1,0-2-0.9-2.6l-3.5-2.2
				c-1.8-1.2-1-4,1.2-4h4.7c0.9,0,1.8-0.6,2.1-1.5l1.7-5.1C998.6,987.4,1001.5,987.4,1002.1,989.4z"/>
		</g>
	</g>
	<g id="cepheus">
		<g id="stars_45_">
			<g>
				<circle cx="921.1" cy="1020.6" r="5.6"/>
			</g>
			<g>
				<circle cx="910.1" cy="1095.6" r="5.6"/>
			</g>
			<g>
				<circle cx="881.1" cy="1143.6" r="5.6"/>
			</g>
			<g>
				<circle cx="860.1" cy="1134.6" r="5.6"/>
			</g>
			<g>
				<circle cx="831.1" cy="1123.6" r="5.6"/>
			</g>
			<g>
				<circle cx="859.1" cy="1069.6" r="5.6"/>
			</g>
		</g>
		<g id="lines_45_">
			<polygon fill="none" stroke="#000000" stroke-width="2" stroke-miterlimit="10" points="921.1,1020.6 910.1,1095.6 881.1,1143.6 
				860.1,1134.6 831.1,1123.6 859.1,1069.6 			"/>
		</g>
	</g>
	<g id="cassiopeia">
		<g id="lines_35_">
			<polyline fill="none" stroke="#000000" stroke-width="2" stroke-miterlimit="10" points="835.2,933.8 804,950.3 808.1,979.1 
				774.8,994.8 797.9,1025.3 			"/>
		</g>
		<g id="stars_44_">
			<circle cx="797.9" cy="1025.3" r="5.7"/>
			<circle cx="774.8" cy="994.8" r="6"/>
			<circle cx="808.1" cy="979.1" r="5.4"/>
			<circle cx="804" cy="950.3" r="5.8"/>
			<circle cx="835.2" cy="933.8" r="5.5"/>
		</g>
	</g>
	<g id="draco">
		<g id="lines_34_">
			<polyline fill="none" stroke="#000000" stroke-width="2" stroke-miterlimit="10" points="1142.5,965.5 1143.5,1005.3 
				1166,1072.5 1165,1150 1142,1173.8 1113,1168.8 1067.6,1158.2 1017.7,1133.9 1018,1117.5 970.5,1134.6 984.3,1159.8 
				1051.5,1229.3 1072.1,1232.4 1077.7,1256 1051.2,1262.3 1051.5,1229.3 			"/>
		</g>
		<g id="stars_43_">
			<circle cx="1051.2" cy="1262.3" r="7.7"/>
			<circle cx="1077.7" cy="1256" r="5.2"/>
			<circle cx="1072.1" cy="1232.4" r="5.4"/>
			<circle cx="1051.5" cy="1229.3" r="5"/>
			<circle cx="984.3" cy="1159.8" r="5"/>
			<circle cx="970.5" cy="1134.6" r="5"/>
			<circle cx="1018" cy="1117.5" r="5"/>
			<circle cx="1017.7" cy="1133.9" r="5.7"/>
			<circle cx="1067.6" cy="1158.2" r="7.6"/>
			<circle cx="1113" cy="1168.8" r="5"/>
			<circle cx="1142" cy="1173.8" r="5"/>
			<circle cx="1165" cy="1150" r="5"/>
			<circle cx="1166" cy="1072.5" r="5"/>
			<circle cx="1143.5" cy="1005.3" r="5"/>
			<circle cx="1142.5" cy="965.5" r="5.8"/>
		</g>
	</g>
	<g id="ursa_major">
		<g id="lines_33_">
			<polyline fill="none" stroke="#000000" stroke-width="2" stroke-miterlimit="10" points="1265.4,1087.2 1241.1,1048.2 
				1232.5,1012.7 1224.4,976.8 1244.7,952.8 1213.5,907 1177.5,923.7 1224.4,976.8 			"/>
		</g>
		<g id="stars_42_">
			<circle cx="1265.4" cy="1087.2" r="7.4"/>
			<circle cx="1241.1" cy="1048.2" r="6.6"/>
			<circle cx="1232.5" cy="1012.7" r="7.5"/>
			<circle cx="1224.4" cy="976.8" r="6.9"/>
			<circle cx="1244.7" cy="952.8" r="7.7"/>
			<circle cx="1213.5" cy="907" r="8"/>
			<circle cx="1177.5" cy="923.7" r="7"/>
		</g>
	</g>
	<g id="lynx">
		<g id="lines_32_">
			<polyline fill="none" stroke="#000000" stroke-width="2" stroke-miterlimit="10" points="1254.4,710.8 1234.3,723.3 
				1194.2,731.3 1145,710.3 1061.3,726.2 1023,783.3 987.3,787.5 			"/>
		</g>
		<g id="stars_41_">
			<circle cx="987.3" cy="787.5" r="6"/>
			<circle cx="1023" cy="783.3" r="5.5"/>
			<circle cx="1061.3" cy="726.2" r="5"/>
			<circle cx="1145" cy="710.3" r="5"/>
			<circle cx="1194.2" cy="731.3" r="4.7"/>
			<circle cx="1234.3" cy="723.3" r="5"/>
			<circle cx="1254.4" cy="710.8" r="7.4"/>
		</g>
	</g>
	<g id="leo">
		<g id="lines_31_">
			<polygon fill="none" stroke="#000000" stroke-width="2" stroke-miterlimit="10" points="1501.1,889.7 1475.8,815.9 1427.5,674 
				1396.8,693.9 1396.4,728.3 1434.3,806.8 1444.9,829.9 			"/>
			<polyline fill="none" stroke="#000000" stroke-width="2" stroke-miterlimit="10" points="1331.5,688.3 1331.8,715.3 
				1370.2,738.3 1396.4,728.3 			"/>
			<line fill="none" stroke="#000000" stroke-width="2" stroke-miterlimit="10" x1="1401.3" y1="615.2" x2="1427.5" y2="674"/>
			<path fill="none" stroke="#000000" stroke-width="2" stroke-miterlimit="10" d="M1412.2,980.5"/>
		</g>
		<g id="stars_40_">
			<circle cx="1331.5" cy="688.3" r="6"/>
			<circle cx="1331.8" cy="715.3" r="6"/>
			<circle cx="1370.2" cy="738.3" r="5.5"/>
			<circle cx="1396.4" cy="728.3" r="6.9"/>
			<circle cx="1396.8" cy="693.9" r="8.3"/>
			<circle cx="1427.5" cy="674" r="7"/>
			<circle cx="1401.3" cy="615.2" r="6.1"/>
			<circle cx="1444.9" cy="829.9" r="7.9"/>
			<circle cx="1475.8" cy="815.9" r="7.8"/>
			<circle cx="1501.1" cy="889.7" r="7.3"/>
			<circle cx="1434.3" cy="806.8" r="6"/>
		</g>
	</g>
	<g id="coma_bernices">
		<g id="lines_30_">
			<polyline fill="none" stroke="#000000" stroke-width="2" stroke-miterlimit="10" points="1412.2,980.5 1412,1069.3 1481.7,1074 
							"/>
		</g>
		<g id="stars_39_">
			<circle cx="1481.7" cy="1074" r="6"/>
			<circle cx="1412" cy="1069.3" r="6"/>
			<circle cx="1412.2" cy="980.5" r="6"/>
		</g>
	</g>
	<g id="bootes">
		<g id="lines_29_">
			<polyline fill="none" stroke="#000000" stroke-width="2" stroke-miterlimit="10" points="1460.7,1161.3 1438.4,1206.3 
				1362.8,1188.9 1310.7,1170.8 1272.7,1201.7 1300,1246.7 1368.9,1225.8 1438.4,1206.3 1446.8,1268.2 			"/>
		</g>
		<g id="stars_38_">
			<circle cx="1310.7" cy="1170.8" r="6"/>
			<circle cx="1272.7" cy="1201.7" r="6"/>
			<circle cx="1300" cy="1246.7" r="6"/>
			<circle cx="1438.4" cy="1206.3" r="8.1"/>
			<circle cx="1446.8" cy="1268.2" r="6.5"/>
			<circle cx="1460.7" cy="1161.3" r="6"/>
			<circle cx="1362.8" cy="1188.9" r="5.1"/>
			<circle cx="1368.9" cy="1225.8" r="5.2"/>
		</g>
	</g>
	<g id="camelopardus">
		<g id="stars_37_">
			<circle cx="919.4" cy="904.4" r="6"/>
			<circle cx="893.1" cy="875.6" r="6"/>
			<circle cx="855.4" cy="856.9" r="6"/>
			<circle cx="934.4" cy="848.4" r="6"/>
			<circle cx="924.3" cy="809.6" r="6"/>
		</g>
		<g id="lines_44_">
			<polygon fill="none" stroke="#000000" stroke-width="2" stroke-miterlimit="10" points="855.4,856.9 924.3,809.6 934.4,848.4 
				919.4,904.4 893.1,875.6 			"/>
		</g>
	</g>
	<g id="leo_minor">
		<g id="lines_28_">
			<polyline fill="none" stroke="#000000" stroke-width="2" stroke-miterlimit="10" points="1299.7,773.3 1310.8,803.3 
				1344.5,831.7 			"/>
		</g>
		<g id="stars_36_">
			<circle cx="1344.5" cy="831.7" r="5.5"/>
			<circle cx="1310.8" cy="803.3" r="5.5"/>
			<circle cx="1299.7" cy="773.3" r="5.5"/>
		</g>
	</g>
	<g id="cancer">
		<g id="lines_27_">
			<polyline fill="none" stroke="#000000" stroke-width="2" stroke-miterlimit="10" points="1301,569.8 1251.2,589.8 1223.5,519.2 
							"/>
			<line fill="none" stroke="#000000" stroke-width="2" stroke-miterlimit="10" x1="1215.8" y1="653.5" x2="1251.2" y2="589.8"/>
		</g>
		<g id="stars_35_">
			<circle cx="1215.8" cy="653.5" r="5.5"/>
			<circle cx="1251.2" cy="589.8" r="5.5"/>
			<circle cx="1301" cy="569.8" r="5.5"/>
			<circle cx="1223.5" cy="519.2" r="5"/>
		</g>
	</g>
	<g id="gemini">
		<g id="lines_26_">
			<polyline fill="none" stroke="#000000" stroke-width="2" stroke-miterlimit="10" points="1026,472.5 1056.8,528.3 1004.5,497.1 
							"/>
			<polyline fill="none" stroke="#000000" stroke-width="2" stroke-miterlimit="10" points="1056.8,528.3 1090,541.8 1113.3,581 
				1127.3,595.3 			"/>
			<polyline fill="none" stroke="#000000" stroke-width="2" stroke-miterlimit="10" points="1132.3,567.3 1113,581 1088,581 
				1061.8,596.8 1026,617.3 			"/>
			<polyline fill="none" stroke="#000000" stroke-width="2" stroke-miterlimit="10" points="975.5,541.3 1016.9,555.8 984.8,522.8 
							"/>
			<polyline fill="none" stroke="#000000" stroke-width="2" stroke-miterlimit="10" points="1016.9,555.8 1061.8,596.8 
				1100.8,617.3 			"/>
		</g>
		<g id="stars_34_">
			<circle cx="1061.8" cy="596.8" r="5"/>
			<circle cx="1088" cy="581" r="5"/>
			<circle cx="1113.3" cy="581" r="5"/>
			<circle cx="1132.3" cy="567.3" r="5"/>
			<circle cx="1026" cy="617.3" r="5"/>
			<circle cx="1056.8" cy="528.3" r="5.5"/>
			<circle cx="975.5" cy="541.3" r="5"/>
			<circle cx="984.8" cy="522.8" r="5"/>
			<circle cx="1026" cy="472.5" r="5"/>
			<circle cx="1100.8" cy="617.3" r="7.5"/>
			<circle cx="1127.3" cy="595.3" r="8"/>
			<circle cx="1090" cy="541.8" r="8"/>
			<circle cx="1016.9" cy="555.8" r="7.5"/>
			<circle cx="1004.5" cy="497.1" r="7.5"/>
		</g>
	</g>
	<g id="canis_minor">
		<g id="lines_25_">
			<line fill="none" stroke="#000000" stroke-width="2" stroke-miterlimit="10" x1="1119.3" y1="453.7" x2="1154" y2="449.2"/>
		</g>
		<g id="stars_33_">
			<circle cx="1154" cy="449.2" r="7"/>
			<circle cx="1119.3" cy="453.7" r="5"/>
		</g>
	</g>
	<g id="canis_major">
		<g id="lines_24_">
			<polyline fill="none" stroke="#000000" stroke-width="2" stroke-miterlimit="10" points="938.7,340.8 980.5,335.7 1091.7,390 
				1191.3,346.3 1248,412 			"/>
		</g>
		<g id="stars_32_">
			<circle cx="1248" cy="412" r="5"/>
			<circle cx="1191.3" cy="346.3" r="5.5"/>
			<circle cx="1091.7" cy="390" r="5"/>
			<circle cx="980.5" cy="335.7" r="4.5"/>
			<circle cx="938.7" cy="340.8" r="5"/>
		</g>
	</g>
	<g id="auriga">
		<g id="stars_31_">
			<circle cx="900.3" cy="718.3" r="7"/>
			<circle cx="949" cy="691.5" r="6"/>
			<circle cx="871.8" cy="691.5" r="5.5"/>
			<circle cx="841" cy="645" r="5.5"/>
			<circle cx="876.3" cy="597.8" r="7"/>
			<circle cx="944.3" cy="645" r="6"/>
		</g>
		<g id="lines_43_">
			<polygon fill="none" stroke="#000000" stroke-width="2" stroke-miterlimit="10" points="876.3,597.8 841,645 871.8,691.5 
				900.3,718.3 949,691.5 944.3,645 			"/>
		</g>
	</g>
	<g id="taurus">
		<g id="lines_23_">
			<polyline fill="none" stroke="#000000" stroke-width="2" stroke-miterlimit="10" points="881.8,541.4 754,557.3 726.5,564.8 
				709,582 720.5,593.8 737.5,585.6 754,594 785,594 876.3,597.8 			"/>
		</g>
		<g id="stars_30_">
			<circle cx="881.8" cy="541.3" r="6"/>
			<circle cx="876.3" cy="597.8" r="7"/>
			<circle cx="754" cy="557.3" r="7.5"/>
			<circle cx="726.5" cy="564.8" r="6"/>
			<circle cx="709" cy="582" r="5.5"/>
			<circle cx="720.5" cy="593.8" r="5.5"/>
			<circle cx="737.5" cy="585.5" r="5.5"/>
			<circle cx="754" cy="593.8" r="5.5"/>
			<circle cx="785" cy="593.8" r="5.5"/>
		</g>
	</g>
	<g id="corona_borealis">
		<g id="lines_22_">
			<polyline fill="none" stroke="#000000" stroke-width="2" stroke-miterlimit="10" points="1276.1,1280.1 1292,1285 1296.3,1303.4 
				1288.9,1316.1 1277.9,1328 1262,1328 1246.5,1320.9 			"/>
		</g>
		<g id="stars_29_">
			<circle cx="1276" cy="1279.9" r="5"/>
			<circle cx="1292" cy="1284.9" r="5"/>
			<circle cx="1296.3" cy="1303.4" r="5"/>
			<circle cx="1288.9" cy="1315.9" r="5"/>
			<circle cx="1277.9" cy="1327.6" r="5"/>
			<circle cx="1261.9" cy="1327.6" r="5"/>
			<circle cx="1246.5" cy="1320.9" r="5"/>
		</g>
	</g>
	<g id="hercules">
		<g id="lines_21_">
			<polyline fill="none" stroke="#000000" stroke-width="2" stroke-miterlimit="10" points="1072.7,1294.8 1066.8,1352.1 
				1112.7,1336 1133,1336 			"/>
			<polyline fill="none" stroke="#000000" stroke-width="2" stroke-miterlimit="10" points="1188.7,1246.5 1163,1248.7 1163,1277 
				1163.3,1305 			"/>
			<polyline fill="none" stroke="#000000" stroke-width="2" stroke-miterlimit="10" points="1059,1415.8 1077.6,1397.4 1098,1417 
				1128,1417 1158.8,1415.5 1168.3,1368.3 			"/>
			<polyline fill="none" stroke="#000000" stroke-width="2" stroke-miterlimit="10" points="1285.3,1437.3 1272.9,1404.7 
				1249.3,1396.3 1198.7,1346 			"/>
			<line fill="none" stroke="#000000" stroke-width="2" stroke-miterlimit="10" x1="1158.8" y1="1415.5" x2="1249.3" y2="1396.3"/>
			<polygon fill="none" stroke="#000000" stroke-width="2" stroke-miterlimit="10" points="1132.7,1336.3 1168.3,1368.3 
				1198.7,1346 1163.3,1305 			"/>
		</g>
		<g id="stars_28_">
			<circle cx="1163.3" cy="1305" r="5"/>
			<circle cx="1132.7" cy="1336.3" r="5"/>
			<circle cx="1112.7" cy="1336.3" r="5"/>
			<circle cx="1066.8" cy="1352.3" r="5"/>
			<circle cx="1072.5" cy="1295" r="5"/>
			<circle cx="1163.3" cy="1277.3" r="5"/>
			<circle cx="1163.3" cy="1248.7" r="5"/>
			<circle cx="1189" cy="1246.7" r="5"/>
			<circle cx="1198.7" cy="1346" r="5"/>
			<circle cx="1168.3" cy="1368.3" r="5"/>
			<circle cx="1058.9" cy="1416" r="5"/>
			<circle cx="1077.5" cy="1397.7" r="5"/>
			<circle cx="1098" cy="1417.3" r="5.5"/>
			<circle cx="1127.7" cy="1417.3" r="5.5"/>
			<circle cx="1272.9" cy="1404.7" r="5.5"/>
			<circle cx="1285.3" cy="1437.3" r="5.5"/>
			<circle cx="1158.8" cy="1415.5" r="7.5"/>
			<circle cx="1249.3" cy="1396.3" r="7.5"/>
		</g>
	</g>
	<g id="lyra">
		<g id="lines_20_">
			<polyline fill="none" stroke="#000000" stroke-width="2" stroke-miterlimit="10" points="993,1341 993,1363 982,1393 957,1393 
				971,1363.3 993,1363 1014.2,1353.9 			"/>
		</g>
		<g id="stars_27_">
			<circle cx="993" cy="1363.3" r="5.5"/>
			<circle cx="993" cy="1341.3" r="5.5"/>
			<circle cx="982" cy="1392.7" r="5.5"/>
			<circle cx="956.7" cy="1392.7" r="5.5"/>
			<circle cx="971" cy="1363.3" r="5.5"/>
			<circle cx="1014.2" cy="1353.9" r="7.5"/>
		</g>
	</g>
	<g id="cygnus">
		<g id="lines_19_">
			<polyline fill="none" stroke="#000000" stroke-width="2" stroke-miterlimit="10" points="946,1248.7 917.3,1290 854.7,1305 
				800,1320.3 747,1313.3 			"/>
			<polyline fill="none" stroke="#000000" stroke-width="2" stroke-miterlimit="10" points="847.7,1261.3 854.7,1305 877.3,1351 
				907,1409.3 			"/>
		</g>
		<g id="stars_26_">
			<circle cx="847.7" cy="1261.3" r="7"/>
			<circle cx="854.7" cy="1305" r="7"/>
			<circle cx="917.3" cy="1290" r="7"/>
			<circle cx="800" cy="1320.3" r="7"/>
			<circle cx="877.3" cy="1351" r="5.5"/>
			<circle cx="907" cy="1409.3" r="6"/>
			<circle cx="946" cy="1248.7" r="6"/>
			<circle cx="747" cy="1313.3" r="6"/>
		</g>
	</g>
	<g id="pegasus">
		<g id="lines_18_">
			<polyline fill="none" stroke="#000000" stroke-width="2" stroke-miterlimit="10" points="608,1371.4 548,1341.8 530.1,1263.3 
				533,1246.5 533,1199 499.5,1050 593,1050 617.6,1165.5 604,1197 604,1216 			"/>
			<polyline fill="none" stroke="#000000" stroke-width="2" stroke-miterlimit="10" points="533,1199 617.6,1165.5 645.5,1191.5 			
				"/>
		</g>
		<g id="stars_25_">
			<circle cx="617.5" cy="1165.5" r="7"/>
			<circle cx="593" cy="1049.8" r="7"/>
			<circle cx="499.5" cy="1049.8" r="7"/>
			<circle cx="533.3" cy="1198.8" r="5.5"/>
			<circle cx="533.3" cy="1246.5" r="5.5"/>
			<circle cx="530.3" cy="1263.3" r="5.5"/>
			<circle cx="548" cy="1341.8" r="5.5"/>
			<circle cx="608" cy="1371.3" r="7"/>
			<circle cx="603.8" cy="1197" r="5.5"/>
			<circle cx="603.8" cy="1216.3" r="5.5"/>
			<circle cx="645.5" cy="1191.5" r="5.5"/>
		</g>
	</g>
	<g id="andromenda">
		<g id="lines_17_">
			<polyline fill="none" stroke="#000000" stroke-width="2" stroke-miterlimit="10" points="703.3,875.2 636.5,943 600,991 
				593,1049.8 621.3,1000 654.7,966.2 732.7,924 			"/>
			<line fill="none" stroke="#000000" stroke-width="2" stroke-miterlimit="10" x1="669.5" y1="980.2" x2="654.7" y2="966.2"/>
		</g>
		<g id="stars_24_">
			<circle cx="600" cy="991" r="5.5"/>
			<circle cx="621.3" cy="1000" r="5.5"/>
			<circle cx="654.7" cy="966.2" r="5.5"/>
			<circle cx="669.5" cy="980.2" r="5.5"/>
			<circle cx="732.7" cy="924" r="5.5"/>
			<circle cx="703.3" cy="875.2" r="5.5"/>
			<circle cx="636.5" cy="943" r="5.5"/>
			<circle cx="593" cy="1049.8" r="7"/>
		</g>
	</g>
	<g id="perseus">
		<g id="lines_16_">
			<polyline fill="none" stroke="#000000" stroke-width="2" stroke-miterlimit="10" points="732.6,709 746.3,694.8 769.9,714.1 
				787.3,736.3 803,785.5 803,815 806.8,842.4 809.5,870.8 787,854.4 787,828 762.3,806.3 744.8,792.5 722.5,785.5 707.8,806.3 			
				"/>
			<polyline fill="none" stroke="#000000" stroke-width="2" stroke-miterlimit="10" points="842.8,785.5 844.5,767 827,767 
				803,785.5 			"/>
			<path fill="none" stroke="#000000" stroke-width="2" stroke-miterlimit="10" d="M621.5,845.8"/>
			<path fill="none" stroke="#000000" stroke-width="2" stroke-miterlimit="10" d="M655.3,819.5"/>
		</g>
		<g id="stars_23_">
			<circle cx="803.3" cy="814.5" r="7"/>
			<circle cx="803.3" cy="785.5" r="7"/>
			<circle cx="744.8" cy="792.5" r="7"/>
			<circle cx="809.8" cy="870.8" r="5.5"/>
			<circle cx="806.8" cy="842.4" r="5.5"/>
			<circle cx="787.5" cy="854.4" r="5.5"/>
			<circle cx="787.5" cy="827.5" r="5.5"/>
			<circle cx="827" cy="767" r="5.5"/>
			<circle cx="844.5" cy="767" r="5.5"/>
			<circle cx="842.8" cy="785.5" r="5.5"/>
			<circle cx="762.3" cy="806.3" r="5.5"/>
			<circle cx="722.5" cy="785.5" r="5.5"/>
			<circle cx="707.8" cy="806.3" r="5.5"/>
			<circle cx="787.5" cy="736.3" r="5.5"/>
			<circle cx="770" cy="714" r="5.5"/>
			<circle cx="746.5" cy="694.5" r="5.5"/>
			<circle cx="733" cy="708.5" r="5.5"/>
		</g>
	</g>
	<g id="triangulum">
		<g id="lines_15_">
			<polyline fill="none" stroke="#000000" stroke-width="2" stroke-miterlimit="10" points="655.3,819.5 621.5,845.8 660.8,841.3 
							"/>
		</g>
		<g id="stars_22_">
			<circle cx="660.8" cy="840.3" r="5.5"/>
			<circle cx="621.5" cy="845.8" r="5.5"/>
			<circle cx="655.3" cy="819.5" r="5.5"/>
		</g>
	</g>
	<g id="aries">
		<g id="lines_14_">
			<polyline fill="none" stroke="#000000" stroke-width="2" stroke-miterlimit="10" points="585.3,819.5 561.8,839 538.5,845.8 			
				"/>
		</g>
		<g id="stars_21_">
			<circle cx="538.5" cy="845.8" r="5"/>
			<circle cx="561.8" cy="839" r="5"/>
			<circle cx="585.3" cy="819.5" r="5"/>
		</g>
	</g>
	<g id="pisces">
		<g id="lines_13_">
			<polyline fill="none" stroke="#000000" stroke-width="2" stroke-miterlimit="10" points="562.1,926.2 511.4,876.3 479,834 
				450.3,782 447,839 448.2,934.2 444.2,1088.5 447.8,1140.8 459.7,1168 447,1199.7 425.8,1182.1 420.3,1141 448,1141 			"/>
		</g>
		<g id="stars_20_">
			<circle cx="562" cy="926.1" r="5.5"/>
			<circle cx="511.3" cy="876.3" r="5.5"/>
			<circle cx="479" cy="834" r="5.5"/>
			<circle cx="450.3" cy="782" r="5.5"/>
			<circle cx="447" cy="839" r="5.5"/>
			<circle cx="448.2" cy="934.2" r="5.5"/>
			<circle cx="444.2" cy="1088.5" r="5.5"/>
			<circle cx="447.8" cy="1140.8" r="5.5"/>
			<circle cx="459.7" cy="1168" r="5.5"/>
			<circle cx="447" cy="1199.7" r="5.5"/>
			<circle cx="425.8" cy="1182" r="5.5"/>
			<circle cx="420.3" cy="1140.8" r="5.5"/>
		</g>
	</g>
	<g id="cetus">
		<g id="lines_12_">
			<polyline fill="none" stroke="#000000" stroke-width="2" stroke-miterlimit="10" points="468,685.3 424.3,723 347,783 348.3,863 
				328.7,905.3 269.3,956.3 296.3,788.5 347,783 			"/>
			<polygon fill="none" stroke="#000000" stroke-width="2" stroke-miterlimit="10" points="493.7,685.3 505.7,733.7 538.5,711.7 
				554,674.3 521,648.7 			"/>
			<line fill="#FFFFFF" stroke="#000000" stroke-width="2" stroke-miterlimit="10" x1="468" y1="686" x2="494" y2="686"/>
		</g>
		<g id="stars_19_">
			<circle cx="269.3" cy="956.3" r="7.5"/>
			<circle cx="328.7" cy="905.3" r="6"/>
			<circle cx="348.3" cy="863" r="6"/>
			<circle cx="347" cy="783" r="5.5"/>
			<circle cx="296.3" cy="788.5" r="5.5"/>
			<circle cx="468" cy="685.3" r="5.5"/>
			<circle cx="493.7" cy="685.3" r="5.5"/>
			<circle cx="521" cy="648.7" r="5.5"/>
			<circle cx="554" cy="674.3" r="5.5"/>
			<circle cx="538.5" cy="711.7" r="5.5"/>
			<circle cx="505.7" cy="733.7" r="5.5"/>
			<circle cx="424.3" cy="723" r="7.5"/>
		</g>
	</g>
	<g id="orion">
		<g id="lines_11_">
			<polyline fill="none" stroke="#000000" stroke-width="2" stroke-miterlimit="10" points="783,525.3 757.5,509.3 746.3,494 
				744,479 742.8,462.8 757.5,449 			"/>
			<polyline fill="none" stroke="#000000" stroke-width="2" stroke-miterlimit="10" points="863.1,482.8 859.7,467.5 826,453.7 
				826,408 838.3,393.5 857.5,383.8 902.5,442 859.7,467.5 			"/>
			<polyline fill="none" stroke="#000000" stroke-width="2" stroke-miterlimit="10" points="857.5,383.8 856.3,331.2 773.5,369.3 
				806.8,393.5 826,408 			"/>
			<line fill="none" stroke="#000000" stroke-width="2" stroke-miterlimit="10" x1="838.3" y1="393.5" x2="832.8" y2="365.8"/>
			<line fill="none" stroke="#000000" stroke-width="2" stroke-miterlimit="10" x1="826" y1="453.7" x2="746.3" y2="494"/>
			<polyline fill="none" stroke="#000000" stroke-width="2" stroke-miterlimit="10" points="902.5,442 923.5,454.5 932,488.3 
				911.5,525.3 			"/>
			<polyline fill="none" stroke="#000000" stroke-width="2" stroke-miterlimit="10" points="923.5,454.5 952.5,480.5 936.5,524.3 
							"/>
		</g>
		<g id="stars_18_">
			<circle cx="783" cy="525.3" r="5.5"/>
			<circle cx="757.5" cy="509.3" r="5.5"/>
			<circle cx="746.3" cy="494" r="5.5"/>
			<circle cx="744" cy="479" r="5.5"/>
			<circle cx="742.8" cy="462.8" r="5.5"/>
			<circle cx="757.5" cy="449" r="5.5"/>
			<circle cx="859.5" cy="467.5" r="5.5"/>
			<circle cx="863" cy="482.8" r="5.5"/>
			<circle cx="923.5" cy="454.5" r="5.5"/>
			<circle cx="932" cy="488.3" r="5.5"/>
			<circle cx="911.5" cy="525.3" r="5.5"/>
			<circle cx="937.5" cy="524.3" r="5.5"/>
			<circle cx="952.5" cy="480.5" r="5.5"/>
			<circle cx="838.3" cy="393.5" r="5.5"/>
			<circle cx="806.8" cy="393.5" r="5.5"/>
			<circle cx="832.8" cy="365.8" r="5"/>
			<circle cx="825.8" cy="453.7" r="7"/>
			<circle cx="825.8" cy="408" r="7.5"/>
			<circle cx="857.5" cy="383.8" r="7.5"/>
			<circle cx="902.5" cy="442" r="7.5"/>
			<circle cx="773.5" cy="369.3" r="7.5"/>
			<circle cx="856.3" cy="331.2" r="7.5"/>
		</g>
	</g>
	<g id="eridanus">
		<g id="lines_10_">
			<polyline fill="none" stroke="#000000" stroke-width="2" stroke-miterlimit="10" points="416,343.3 429.5,355.3 522.9,303.1 
				540,288 587,288 510.5,395.5 493,408 479.5,428.3 458,464.8 424.3,500 377.8,536.5 402.5,623.5 447.8,612.8 483,567.8 
				515.3,526.8 536.3,503.8 550,451.7 610,466.4 618.5,447 681,447 708,433.3 719,408 748.3,400.5 			"/>
		</g>
		<g id="stars_17_">
			<circle cx="748.3" cy="400.5" r="5"/>
			<circle cx="719" cy="408" r="5"/>
			<circle cx="708" cy="433.3" r="5"/>
			<circle cx="681.5" cy="446.7" r="5"/>
			<circle cx="618.5" cy="446.7" r="5"/>
			<circle cx="610" cy="466.3" r="5"/>
			<circle cx="550" cy="451.7" r="5"/>
			<circle cx="536.3" cy="503.8" r="5"/>
			<circle cx="515.3" cy="526.8" r="5"/>
			<circle cx="483" cy="567.8" r="5"/>
			<circle cx="447.8" cy="612.8" r="5"/>
			<circle cx="402.5" cy="623.5" r="5"/>
			<circle cx="377.8" cy="536.5" r="5"/>
			<circle cx="424.3" cy="500" r="5"/>
			<circle cx="458" cy="464.8" r="5"/>
			<circle cx="479.5" cy="428.3" r="5"/>
			<circle cx="493" cy="408" r="5"/>
			<circle cx="510.5" cy="395.5" r="5"/>
			<circle cx="587.5" cy="288.3" r="5"/>
			<circle cx="540" cy="288.3" r="5"/>
			<circle cx="523" cy="303.3" r="5"/>
			<circle cx="429.8" cy="355.3" r="5"/>
			<circle cx="416.5" cy="343.3" r="5"/>
		</g>
	</g>
	<g id="lepus">
		<g id="stars_16_">
			<circle cx="773.5" cy="253.5" r="5.5"/>
			<circle cx="794.3" cy="278.5" r="5.5"/>
			<circle cx="815" cy="227.3" r="5.5"/>
			<circle cx="832.8" cy="241.5" r="5.5"/>
			<circle cx="702" cy="271" r="7"/>
			<circle cx="739.3" cy="308.3" r="7.5"/>
		</g>
		<g id="lines_42_">
			<path fill="none" stroke="#000000" stroke-width="2" stroke-miterlimit="10" d="M739.3,308.3l54.9-29.8l38.5-37L815,227.3
				c0,0-41.4,25.5-41.5,26.3S702,271,702,271L739.3,308.3z"/>
		</g>
	</g>
	<g id="monoceros">
		<g id="lines_9_">
			<polyline fill="none" stroke="#000000" stroke-width="2" stroke-miterlimit="10" points="956.9,261.5 1025.2,274.4 1082.2,231.8 
				1108.3,213 1133,213 1168.3,200.5 			"/>
			<polyline fill="none" stroke="#000000" stroke-width="2" stroke-miterlimit="10" points="1076.8,183.5 1089.8,198.8 1108.3,213 
							"/>
		</g>
		<g id="stars_15_">
			<circle cx="957" cy="261.3" r="7"/>
			<circle cx="1025.3" cy="274.3" r="7"/>
			<circle cx="1082.3" cy="231.5" r="7.5"/>
			<circle cx="1108.3" cy="212.5" r="7.5"/>
			<circle cx="1133.3" cy="212.5" r="7.5"/>
			<circle cx="1168.3" cy="200.5" r="7.5"/>
			<circle cx="1089.8" cy="198.8" r="6"/>
			<circle cx="1076.8" cy="183.5" r="5.5"/>
		</g>
	</g>
	<g id="hydra">
		<g id="lines_8_">
			<polyline fill="none" stroke="#000000" stroke-width="2" stroke-miterlimit="10" points="1315,499 1331.8,514.2 1383.7,524.2 
				1427.5,544 1448,564.3 1457,504.8 1536,519.7 1565.7,580.7 1616.3,602.7 1643.3,667 1671.7,695 1720.7,716.3 1799.3,768.3 
				1826,835.7 1771.7,1141.7 1766.2,1178.7 1756.7,1302.3 			"/>
			<polygon fill="none" stroke="#000000" stroke-width="2" stroke-miterlimit="10" points="1315,499 1315,473 1291.7,483.7 			"/>
		</g>
		<g id="stars_14_">
			<circle cx="1291.7" cy="483.7" r="5.5"/>
			<circle cx="1314.7" cy="473" r="5.5"/>
			<circle cx="1314.7" cy="499.3" r="5.5"/>
			<circle cx="1331.8" cy="514.2" r="5.5"/>
			<circle cx="1383.7" cy="524.2" r="5.5"/>
			<circle cx="1427.5" cy="544" r="5.5"/>
			<circle cx="1448" cy="564.3" r="5.5"/>
			<circle cx="1457" cy="504.8" r="7"/>
			<circle cx="1536" cy="519.7" r="5.5"/>
			<circle cx="1565.7" cy="580.7" r="5.5"/>
			<circle cx="1616.3" cy="602.7" r="5.5"/>
			<circle cx="1643.3" cy="667" r="5.5"/>
			<circle cx="1671.7" cy="695" r="5.5"/>
			<circle cx="1720.7" cy="716.3" r="5.5"/>
			<circle cx="1799.3" cy="768.3" r="5.5"/>
			<circle cx="1826" cy="835.7" r="5.5"/>
			<circle cx="1771.7" cy="1141.7" r="5.5"/>
			<circle cx="1766.2" cy="1178.7" r="5.5"/>
			<circle cx="1756.7" cy="1302.3" r="5.5"/>
		</g>
	</g>
	<g id="corvus">
		<g id="stars_13_">
			<circle cx="1717.8" cy="924.5" r="7"/>
			<circle cx="1717.8" cy="970.7" r="7"/>
			<circle cx="1760.5" cy="984.7" r="7.5"/>
			<circle cx="1751.2" cy="906.5" r="7.5"/>
		</g>
		<g id="lines_41_">
			<polygon fill="none" stroke="#000000" stroke-width="2" stroke-miterlimit="10" points="1718,925 1718,971 1760.5,984.7 
				1751.2,906.5 			"/>
		</g>
	</g>
	<g id="crater">
		<g id="lines_7_">
			<path fill="none" stroke="#000000" stroke-width="2" stroke-miterlimit="10" d="M1716.8,866.5l-1.6-36.3l-17.9-60.7
				c0,0-16.9-15.3-21.8-12.8s-21.3,24-21.3,24l3,38.8"/>
		</g>
		<g id="stars_12_">
			<circle cx="1657.3" cy="819.5" r="5.5"/>
			<circle cx="1654.3" cy="780.8" r="5.5"/>
			<circle cx="1675.5" cy="756.8" r="5.5"/>
			<circle cx="1697.3" cy="769.5" r="5.5"/>
			<circle cx="1715.2" cy="830.2" r="5.5"/>
			<circle cx="1716.8" cy="866.5" r="5.5"/>
		</g>
	</g>
	<g id="virgo">
		<g id="lines_6_">
			<path fill="none" stroke="#000000" stroke-width="2" stroke-miterlimit="10" d="M1590,875.3c-0.1,1.1,30,73.8,30,73.8v60l27,80.8
				l29.5,50.3c0,0-52.5,139.7-53,140.5s-28.5-9.3-28.5-9.3l-40.3,65.8l-45.3-19l50.3-102.8l33-62.5l-0.8-108l28-35.8"/>
		</g>
		<g id="stars_11_">
			<circle cx="1647" cy="1089.8" r="5.5"/>
			<circle cx="1620.3" cy="1009" r="5.5"/>
			<circle cx="1620.3" cy="949" r="5.5"/>
			<circle cx="1590.3" cy="875.3" r="5.5"/>
			<circle cx="1592" cy="1044.8" r="5.5"/>
			<circle cx="1592.8" cy="1152.8" r="5.5"/>
			<circle cx="1559.8" cy="1215.3" r="5.5"/>
			<circle cx="1509.5" cy="1318" r="5.5"/>
			<circle cx="1554.8" cy="1337" r="5.5"/>
			<circle cx="1595" cy="1271.3" r="5.5"/>
			<circle cx="1623.5" cy="1280.5" r="5.5"/>
			<circle cx="1676.5" cy="1140" r="7.5"/>
		</g>
	</g>
	<g id="libra">
		<g id="stars_10_">
			<circle cx="1606.3" cy="1395.5" r="5.5"/>
			<circle cx="1512.3" cy="1502.8" r="5.5"/>
			<circle cx="1525.3" cy="1435.5" r="7.5"/>
			<circle cx="1637.3" cy="1470.8" r="7.5"/>
		</g>
		<g id="lines_40_">
			<polygon fill="none" stroke="#000000" stroke-width="2" stroke-miterlimit="10" points="1525.3,1435.5 1606.3,1395.5 
				1637.3,1470.8 1512.3,1502.8 			"/>
		</g>
	</g>
	<g id="ophiuchus">
		<g id="lines_5_">
			<polyline fill="none" stroke="#000000" stroke-width="2" stroke-miterlimit="10" points="957.9,1578.5 1050.1,1632.2 
				1113.9,1671.2 1172.6,1676.1 1193.1,1696 1268.5,1670.5 1342.2,1592.8 1364.8,1534.7 1380.8,1515.5 1390.9,1452.2 1395.3,1429.6 
				1380.1,1424.9 1391.6,1391.4 1351.9,1385.9 1331,1374.4 1331,1402 1351.9,1385.9 			"/>
			<path fill="none" stroke="#000000" stroke-width="2" stroke-miterlimit="10" d="M1342.2,1592.8c0,0-92.8-107.3-96-106.3
				c-3.2,1-54.6-3.2-61.3,0c-6.8,3.2-42.7,20.7-42.7,20.7l-1.7,55.3l128,108"/>
		</g>
		<g id="stars_9_">
			<circle cx="1268.5" cy="1670.5" r="7.5"/>
			<circle cx="1342.2" cy="1592.8" r="7.5"/>
			<circle cx="1140.5" cy="1562.5" r="7.5"/>
			<circle cx="1142.2" cy="1507.2" r="7.5"/>
			<circle cx="1184.8" cy="1486.5" r="7.5"/>
			<circle cx="1246.2" cy="1486.5" r="7.5"/>
			<circle cx="1364.8" cy="1534.7" r="7.5"/>
			<circle cx="1380.8" cy="1515.5" r="7.5"/>
			<circle cx="1113.9" cy="1671.3" r="7.5"/>
			<circle cx="1050.1" cy="1632.3" r="7.5"/>
			<circle cx="1390.9" cy="1452.3" r="5.5"/>
			<circle cx="1395.3" cy="1429.6" r="5.5"/>
			<circle cx="1380.1" cy="1424.9" r="5.5"/>
			<circle cx="1391.6" cy="1391.4" r="5.5"/>
			<circle cx="1351.9" cy="1385.9" r="5.5"/>
			<circle cx="1331" cy="1402.3" r="5.5"/>
			<circle cx="1331" cy="1374.4" r="5.5"/>
			<circle cx="1193.1" cy="1696" r="5.5"/>
			<circle cx="1172.6" cy="1676.1" r="5.5"/>
			<circle cx="957.9" cy="1578.6" r="5.5"/>
		</g>
	</g>
	<g id="scorpius">
		<g id="lines_4_">
			<path fill="none" stroke="#000000" stroke-width="2" stroke-miterlimit="10" d="M1173.4,1813.1c0,0,49.9-7.3,48.3-6.5
				c-1.6,0.8-12.1,16.1-13.4,19.1c-1.3,3.1,0,23.2,0,23.2l35.3,8.3l90.7-29.7l44.9-45.2l-3.2-19.8V1740l20.2-56.3l15.3-23.5
				l22.8-19.5l46.3-56l-25.2-10.8"/>
			<line fill="none" stroke="#000000" stroke-width="2" stroke-miterlimit="10" x1="1495.2" y1="1600.3" x2="1480.7" y2="1584.7"/>
		</g>
		<g id="stars_8_">
			<circle cx="1455.5" cy="1573.8" r="5.5"/>
			<circle cx="1480.7" cy="1584.7" r="5.5"/>
			<circle cx="1495.2" cy="1600.3" r="5.5"/>
			<circle cx="1434.3" cy="1640.7" r="5.5"/>
			<circle cx="1396.2" cy="1683.7" r="5.5"/>
			<circle cx="1411.5" cy="1660.2" r="7"/>
			<circle cx="1376.5" cy="1739.8" r="7"/>
			<circle cx="1376.5" cy="1762.5" r="5.5"/>
			<circle cx="1379.5" cy="1782.3" r="5.5"/>
			<circle cx="1334.3" cy="1827.5" r="5.5"/>
			<circle cx="1243.7" cy="1857.2" r="7"/>
			<circle cx="1208.3" cy="1848.8" r="5.5"/>
			<circle cx="1208.3" cy="1825.7" r="5.5"/>
			<circle cx="1173.7" cy="1813" r="5.5"/>
			<circle cx="1221.8" cy="1806.5" r="7"/>
		</g>
	</g>
	<g id="sagittarius">
		<g id="lines_3_">
			<polyline fill="none" stroke="#000000" stroke-width="2" stroke-miterlimit="10" points="936.6,1820.8 1058.3,1838.3 
				1059.1,1790.6 965.2,1783.5 1035.1,1755 1059.1,1790.6 1088.9,1801.3 1058.3,1838.3 			"/>
			<polygon fill="none" stroke="#000000" stroke-width="2" stroke-miterlimit="10" points="936.6,1820.8 919.4,1784.1 948.3,1767 
				965.2,1783.5 			"/>
		</g>
		<g id="stars_7_">
			<circle cx="1058.3" cy="1838.3" r="7.5"/>
			<circle cx="936.6" cy="1820.8" r="5.5"/>
			<circle cx="919.4" cy="1784.1" r="5"/>
			<circle cx="948.3" cy="1767" r="5"/>
			<circle cx="965.2" cy="1783.5" r="5"/>
			<circle cx="1035.1" cy="1755" r="5"/>
			<circle cx="1059.1" cy="1790.6" r="5"/>
			<circle cx="1088.9" cy="1801.3" r="5"/>
		</g>
	</g>
	<g id="aquila">
		<g id="stars_6_">
			<circle cx="829.7" cy="1523.3" r="7.6"/>
			<circle cx="809" cy="1538.3" r="6.5"/>
			<circle cx="755.6" cy="1563.4" r="5.5"/>
			<circle cx="844.1" cy="1599.8" r="5.5"/>
			<circle cx="924" cy="1638.6" r="5.5"/>
			<circle cx="882.3" cy="1579.4" r="5.5"/>
			<circle cx="854.3" cy="1511.8" r="5.5"/>
		</g>
		<g id="lines_39_">
			<path fill="none" stroke="#000000" stroke-width="2" stroke-miterlimit="10" d="M924,1638.6c0,0-77.8-38.8-79.9-38.9
				s-88.5-36.4-88.5-36.4l53.4-25l20.7-15.1c0,0,23.4-13.1,24.5-11.5s28,67.6,28,67.6L924,1638.6z"/>
		</g>
	</g>
	<g id="capricornus">
		<g id="stars_5_">
			<circle cx="706.3" cy="1626.5" r="5.5"/>
			<circle cx="690.5" cy="1636" r="5.5"/>
			<circle cx="584.5" cy="1667.8" r="5.5"/>
			<circle cx="556.7" cy="1667.8" r="5.5"/>
			<circle cx="489.3" cy="1571.3" r="5.5"/>
			<circle cx="473.2" cy="1491" r="5.5"/>
			<circle cx="489.3" cy="1509.5" r="5.5"/>
			<circle cx="524.7" cy="1543.3" r="5.5"/>
			<circle cx="562.2" cy="1579" r="5.5"/>
		</g>
		<g id="lines_38_">
			<polygon fill="none" stroke="#000000" stroke-width="2" stroke-miterlimit="10" points="472.9,1491.1 489.2,1571.5 556.7,1668 
				584,1668 690.5,1636 706.3,1626.5 562.2,1579 524.7,1543.3 489.3,1509.5 			"/>
		</g>
	</g>
	<g id="delphinus">
		<g id="lines_2_">
			<polygon fill="none" stroke="#000000" stroke-width="2" stroke-miterlimit="10" points="729.2,1434.5 729,1417.1 743.9,1425.2 
				744,1446.5 744,1468 			"/>
		</g>
		<g id="stars_4_">
			<circle cx="745.5" cy="1467.5" r="5.5"/>
			<circle cx="745.5" cy="1446.5" r="5.5"/>
			<circle cx="744.8" cy="1425.2" r="5.5"/>
			<circle cx="729.9" cy="1434.3" r="5.5"/>
			<circle cx="729.4" cy="1417" r="5.5"/>
		</g>
	</g>
	<g id="piscis_austrinus">
		<g id="stars_3_">
			<circle cx="253" cy="1355" r="5.5"/>
			<circle cx="253" cy="1377.5" r="5.5"/>
			<circle cx="292.5" cy="1430" r="5.5"/>
			<circle cx="330.8" cy="1498" r="5.5"/>
			<circle cx="385.8" cy="1555.3" r="5.5"/>
			<circle cx="315.8" cy="1380.4" r="5.5"/>
			<circle cx="278.5" cy="1344" r="7.5"/>
		</g>
		<g id="lines_37_">
			<polygon fill="none" stroke="#000000" stroke-width="2" stroke-miterlimit="10" points="253,1355 278.5,1344 315.8,1380.4 
				385.8,1555.3 330.8,1498 292.5,1430 253,1377.5 			"/>
		</g>
	</g>
	<g id="aquarius">
		<g id="lines_1_">
			<polyline fill="none" stroke="#000000" stroke-width="2" stroke-miterlimit="10" points="303.8,1284.6 353.7,1310.2 
				378.2,1318.1 409,1292.9 469.9,1307.9 488,1324.6 488,1347 517.6,1374.9 561.3,1467 636.5,1559.1 			"/>
		</g>
		<g id="stars_1_">
			<circle cx="636.5" cy="1559.1" r="5.5"/>
			<circle cx="561.3" cy="1467" r="5.5"/>
			<circle cx="517.6" cy="1374.9" r="5.5"/>
			<circle cx="487.8" cy="1347.3" r="5.5"/>
			<circle cx="487.8" cy="1324.6" r="5.5"/>
			<circle cx="469.8" cy="1307.9" r="5.5"/>
			<circle cx="409" cy="1292.9" r="5.5"/>
			<circle cx="378.1" cy="1318.1" r="5.5"/>
			<circle cx="353.6" cy="1310.3" r="5.5"/>
			<circle cx="303.6" cy="1284.8" r="5.5"/>
		</g>
	</g>
</g>
<g id="Labels">
	
		<text id="label_x5F_ursa_x5F_minor" transform="matrix(0.7737 0.6336 -0.6336 0.7737 963.1251 1044.9161)" font-family="'BookmanOldStyle'" font-size="21">Ursa Minor</text>
	
		<text id="label_x5F_ursa_x5F_major" transform="matrix(-0.1943 -0.9809 0.9809 -0.1943 1294 1010.2503)" font-family="'BookmanOldStyle'" font-size="21">Ursa Major</text>
	
		<text id="label_x5F_cepheus" transform="matrix(0.9216 0.3881 -0.3881 0.9216 800.4634 1147.0326)" font-family="'BookmanOldStyle'" font-size="21">Cepheus</text>
	
		<text id="label_x5F_cassiopeia" transform="matrix(-0.4444 0.8958 -0.8958 -0.4444 774.751 920.6253)" font-family="'BookmanOldStyle'" font-size="21">Cassiopeia</text>
	
		<text id="label_x5F_draco" transform="matrix(0.6743 -0.7384 0.7384 0.6743 1154.583 1204.2499)" font-family="'BookmanOldStyle'" font-size="21">Draco</text>
	
		<text id="label_x5F_lynx" transform="matrix(-0.972 0.235 -0.235 -0.972 1137.0889 745.6725)" font-family="'BookmanOldStyle'" font-size="21">Lynx</text>
	
		<text id="label_x5F_leo" transform="matrix(-0.5336 -0.8457 0.8457 -0.5336 1494.1416 757.3641)" font-family="'BookmanOldStyle'" font-size="21">Leo</text>
	
		<text id="label_x5F_leo_x5F_minor" transform="matrix(-0.513 -0.8584 0.8584 -0.513 1385.2837 845.7498)" font-family="'BookmanOldStyle'" font-size="21">Leo Minor</text>
	
		<text id="label_x5F_coma_x5F_bernices" transform="matrix(4.082220e-002 -0.9992 0.9992 4.082220e-002 1508.375 1117.5603)" font-family="'BookmanOldStyle'" font-size="21">Coma Berenices</text>
	
		<text id="label_x5F_bootes" transform="matrix(0.1993 -0.9799 0.9799 0.1993 1485.8734 1256.7246)" font-family="'BookmanOldStyle'" font-size="21">Boötes</text>
	
		<text id="label_x5F_camelopardus" transform="matrix(-0.219 0.9757 -0.9757 -0.219 954.9995 828.5001)" font-family="'BookmanOldStyle'" font-size="16.526">Camelopardus</text>
	
		<text id="label_x5F_cancer" transform="matrix(-0.9075 -0.4201 0.4201 -0.9075 1314.6666 536.2511)" font-family="'BookmanOldStyle'" font-size="21">Cancer</text>
	
		<text id="label_x5F_gemini" transform="matrix(-0.999 4.373948e-002 -4.373948e-002 -0.999 1064.6814 442.0004)" font-family="'BookmanOldStyle'" font-size="21">Gemini</text>
	
		<text id="label_x5F_canis_x5F_minor" transform="matrix(-0.9835 -0.1809 0.1809 -0.9835 1258.6895 443.9206)" font-family="'BookmanOldStyle'" font-size="21">Canis Minor</text>
	
		<text id="label_x5F_canis_x5F_major" transform="matrix(-0.9742 -0.2259 0.2259 -0.9742 1252.9995 323.6673)" font-family="'BookmanOldStyle'" font-size="21">Canis Major</text>
	
		<text id="label_x5F_auriga" transform="matrix(-0.8637 0.504 -0.504 -0.8637 986.2712 694.5003)" font-family="'BookmanOldStyle'" font-size="21">Auriga</text>
	
		<text id="label_x5F_taurus" transform="matrix(-0.6407 0.7678 -0.7678 -0.6407 697.8328 541.7501)" font-family="'BookmanOldStyle'" font-size="21">Taurus</text>
	<text id="label_x5F_corona_x5F_borealis" transform="matrix(0.6521 -0.7581 0.7581 0.6521 1301.2499 1342.4999)"><tspan x="0" y="0" font-family="'BookmanOldStyle'" font-size="16">Corona</tspan><tspan x="0" y="19.2" font-family="'BookmanOldStyle'" font-size="16">Borealis</tspan></text>
	
		<text id="label_x5F_hercules" transform="matrix(0.9133 -0.4072 0.4072 0.9133 1159.9999 1463.2499)" font-family="'BookmanOldStyle'" font-size="21">Hercules</text>
	
		<text id="label_x5F_lyra" transform="matrix(0.9988 4.952468e-002 -4.952468e-002 0.9988 951.7459 1424.451)" font-family="'BookmanOldStyle'" font-size="21">Lyra</text>
	
		<text id="label_x5F_cygnus" transform="matrix(0.7714 0.6364 -0.6364 0.7714 792.7841 1361.7419)" font-family="'BookmanOldStyle'" font-size="21">Cygnus</text>
	
		<text id="label_x5F_pegasus" transform="matrix(0.4285 0.9035 -0.9035 0.4285 574.4296 1220.5431)" font-family="'BookmanOldStyle'" font-size="21">Pegasus</text>
	
		<text id="label_x5F_andromenda" transform="matrix(-0.4533 0.8913 -0.8913 -0.4533 615.8336 897.9393)" font-family="'BookmanOldStyle'" font-size="21">Andromeda</text>
	
		<text id="label_x5F_perseus" transform="matrix(-0.6056 0.7958 -0.7958 -0.6056 732.0007 658.9999)" font-family="'BookmanOldStyle'" font-size="21">Perseus</text>
	
		<text id="label_x5F_triangulum" transform="matrix(-0.9758 0.2188 -0.2188 -0.9758 697.8328 845.7505)" font-family="'BookmanOldStyle'" font-size="15.4436">Triangulum</text>
	
		<text id="label_x5F_aries" transform="matrix(-0.8089 0.588 -0.588 -0.8089 567.4992 793.9994)" font-family="'BookmanOldStyle'" font-size="21">Aries</text>
	
		<text id="label_x5F_pisces" transform="matrix(-2.031386e-002 0.9998 -0.9998 -2.031386e-002 414.0622 937.0297)" font-family="'BookmanOldStyle'" font-size="21">Pisces</text>
	
		<text id="label_x5F_cetus" transform="matrix(-6.429273e-002 0.9979 -0.9979 -6.429273e-002 254.2567 830.5395)" font-family="'BookmanOldStyle'" font-size="21">Cetus</text>
	
		<text id="label_x5F_orion" transform="matrix(-0.9742 0.2256 -0.2256 -0.9742 830.947 315.1104)" font-family="'BookmanOldStyle'" font-size="21">Orion</text>
	
		<text id="label_x5F_eridanus" transform="matrix(-0.6544 0.7562 -0.7562 -0.6544 452.1567 405.3495)" font-family="'BookmanOldStyle'" font-size="21">Eridanus</text>
	
		<text id="label_x5F_lepus" transform="matrix(-0.9605 0.2781 -0.2781 -0.9605 774.192 207.0867)" font-family="'BookmanOldStyle'" font-size="21">Lepus</text>
	
		<text id="label_x5F_monoceros" transform="matrix(-0.9956 -9.326515e-002 9.326515e-002 -0.9956 1179.0347 160.9081)" font-family="'BookmanOldStyle'" font-size="21">Monoceros</text>
	
		<text id="label_x5F_hydra" transform="matrix(-0.427 -0.9043 0.9043 -0.427 1686.408 662.2522)" font-family="'BookmanOldStyle'" font-size="21">Hydra</text>
	
		<text id="label_x5F_corvus" transform="matrix(3.072544e-002 -0.9995 0.9995 3.072544e-002 1697.2577 984.5497)" font-family="'BookmanOldStyle'" font-size="21">Corvus</text>
	
		<text id="label_x5F_crater" transform="matrix(-0.3967 -0.918 0.918 -0.3967 1748.0114 814.0002)" font-family="'BookmanOldStyle'" font-size="21">Crater</text>
	
		<text id="label_x5F_virgo" transform="matrix(0.194 -0.981 0.981 0.194 1679.9302 1258.9673)" font-family="'BookmanOldStyle'" font-size="21">Virgo</text>
	
		<text id="label_x5F_libra" transform="matrix(0.4977 -0.8674 0.8674 0.4977 1673.6233 1517.1378)" font-family="'BookmanOldStyle'" font-size="21">Libra</text>
	
		<text id="label_x5F_ophiuchus" transform="matrix(0.8209 -0.571 0.571 0.8209 1320.9644 1670.1348)" font-family="'BookmanOldStyle'" font-size="21">Ophiuchus</text>
	
		<text id="label_x5F_scorpius" transform="matrix(0.8737 -0.4865 0.4865 0.8737 1419.2792 1741.3756)" font-family="'BookmanOldStyle'" font-size="21">Scorpius</text>
	
		<text id="label_x5F_sagittarius" transform="matrix(0.9998 1.916809e-002 -1.916809e-002 0.9998 929.5001 1871.1771)" font-family="'BookmanOldStyle'" font-size="21">Sagittarius</text>
	
		<text id="label_x5F_aquila" transform="matrix(0.919 0.3943 -0.3943 0.919 780.9218 1609.8999)" font-family="'BookmanOldStyle'" font-size="21">Aquila</text>
	
		<text id="label_x5F_capricornus" transform="matrix(0.7961 0.6052 -0.6052 0.7961 474.3439 1661.4739)" font-family="'BookmanOldStyle'" font-size="21">Capricornus</text>
	
		<text id="label_x5F_delphinus" transform="matrix(0.7596 0.6504 -0.6504 0.7596 651.1064 1425.1597)" font-family="'BookmanOldStyle'" font-size="21">Delphinus</text>
	
		<text id="label_x5F_piscis_x5F_austrinus" transform="matrix(0.5243 0.8515 -0.8515 0.5243 248.1271 1411.2111)" font-family="'BookmanOldStyle'" font-size="21">Piscis Austrinus</text>
	
		<text id="label_x5F_aquarius" transform="matrix(0.6024 0.7982 -0.7982 0.6024 469.4033 1408.4216)" font-family="'BookmanOldStyle'" font-size="21">Aquarius</text>
</g>
</svg>
