<?xml version="1.0" encoding="utf-8"?>
<!-- Generator: Adobe Illustrator 18.1.1, SVG Export Plug-In . SVG Version: 6.00 Build 0)  -->
<svg version="1.1" xmlns="http://www.w3.org/2000/svg" xmlns:xlink="http://www.w3.org/1999/xlink" x="0px" y="0px"
	 viewBox="0 0 2000 2000" preserveAspectRatio="xMidYMid meet" enable-background="new 0 0 2000 2000" xml:space="preserve">
<g id="constellations">
	<g id="gemini">
		<g id="lines">
			<polyline fill="none" stroke="#000000" stroke-width="2" stroke-miterlimit="10" points="952.3,1734.7 1007.5,1752 972.3,1719 
							"/>
			<line fill="none" stroke="#000000" stroke-width="2" stroke-miterlimit="10" x1="1007.5" y1="1752" x2="1086" y2="1783"/>
			<polyline fill="none" stroke="#000000" stroke-width="2" stroke-miterlimit="10" points="999.8,1674.6 1098.2,1690.5 
				1113.6,1733.6 1130,1755 1161,1755 			"/>
			<polyline fill="none" stroke="#000000" stroke-width="2" stroke-miterlimit="10" points="1158.7,1727.3 1130,1754.5 
				1107.7,1766.3 1086,1783 1063,1807 			"/>
			<line fill="none" stroke="#000000" stroke-width="2" stroke-miterlimit="10" x1="1086" y1="1783" x2="1141.5" y2="1786"/>
			<polyline fill="none" stroke="#000000" stroke-width="2" stroke-miterlimit="10" points="1113.7,1733.3 1072.7,1729.2 
				983.5,1692 			"/>
		</g>
		<g id="stars">
			<circle cx="1007.5" cy="1752" r="7.5"/>
			<circle cx="1141.5" cy="1786" r="7.5"/>
			<circle cx="1161.5" cy="1754.5" r="7.5"/>
			<circle cx="983.5" cy="1692" r="7.5"/>
			<circle cx="1063" cy="1807" r="6"/>
			<circle cx="1086" cy="1783" r="6"/>
			<circle cx="1107.7" cy="1766.3" r="6"/>
			<circle cx="1130" cy="1754.5" r="6"/>
			<circle cx="1158.7" cy="1727.3" r="6"/>
			<circle cx="1113.7" cy="1733.3" r="6"/>
			<circle cx="1072.7" cy="1727.3" r="6"/>
			<circle cx="1098.3" cy="1690.3" r="6"/>
			<circle cx="1000" cy="1674.3" r="5.5"/>
			<circle cx="972.3" cy="1719" r="5.5"/>
			<circle cx="952.3" cy="1734.7" r="5.5"/>
		</g>
	</g>
	<g id="canis_minor">
		<g id="stars_1_">
			<circle cx="1166.4" cy="1592" r="7"/>
			<circle cx="1144.9" cy="1619.6" r="5"/>
		</g>
		<g id="lines_1_">
			<line fill="none" stroke="#000000" stroke-width="2" stroke-miterlimit="10" x1="1144.9" y1="1619.6" x2="1166.4" y2="1592"/>
		</g>
	</g>
	<g id="orion">
		<g id="lines_2_">
			<polyline fill="none" stroke="#000000" stroke-width="2" stroke-miterlimit="10" points="835.2,1561.7 820.9,1539.7 809,1497.3 
				891.7,1516 866.7,1556 850,1556 835,1561.7 802,1597 714.3,1571 			"/>
			<polyline fill="none" stroke="#000000" stroke-width="2" stroke-miterlimit="10" points="802,1597 826.3,1631.3 871,1628 
				895,1643 906.7,1679.8 889.5,1717 863.5,1713.5 889.5,1679.8 895,1643 			"/>
			<polyline fill="none" stroke="#000000" stroke-width="2" stroke-miterlimit="10" points="751,1543 736,1548.5 714.3,1571 
				715.7,1593 712,1615 			"/>
		</g>
		<g id="stars_2_">
			<circle cx="714.3" cy="1571" r="7.5"/>
			<circle cx="849.7" cy="1556" r="7.5"/>
			<circle cx="866.7" cy="1556" r="7.5"/>
			<circle cx="871" cy="1628" r="7.5"/>
			<circle cx="715.7" cy="1593" r="5.5"/>
			<circle cx="712" cy="1615" r="5.5"/>
			<circle cx="736" cy="1548.5" r="5.5"/>
			<circle cx="751" cy="1543" r="5.5"/>
			<circle cx="802" cy="1597" r="5.5"/>
			<circle cx="826.3" cy="1631.3" r="5.5"/>
			<circle cx="895" cy="1643" r="5.5"/>
			<circle cx="889.5" cy="1679.8" r="5.5"/>
			<circle cx="906.7" cy="1679.8" r="5.5"/>
			<circle cx="889.5" cy="1717" r="5.5"/>
			<circle cx="863.5" cy="1713.5" r="5.5"/>
			<circle cx="835" cy="1561.7" r="5.5"/>
			<circle cx="820.8" cy="1539.7" r="5.5"/>
			<circle cx="809" cy="1497.3" r="7"/>
			<circle cx="891.7" cy="1516" r="5.5"/>
		</g>
	</g>
	<g id="taurus">
		<g id="lines_3_">
			<polyline fill="none" stroke="#000000" stroke-width="2" stroke-miterlimit="10" points="768.3,1733.3 620.3,1593 610,1576.3 
				607.8,1558.8 625.8,1564.3 644.3,1578.5 800.8,1701.3 			"/>
			<polyline fill="none" stroke="#000000" stroke-width="2" stroke-miterlimit="10" points="535.3,1426.3 529.8,1440.5 
				581.5,1508.5 607.8,1558.8 			"/>
			<polyline fill="none" stroke="#000000" stroke-width="2" stroke-miterlimit="10" points="604.5,1474.3 581.5,1508.5 668.3,1485 
							"/>
		</g>
		<g id="stars_3_">
			<circle cx="644.3" cy="1578.5" r="7.5"/>
			<circle cx="620.3" cy="1593" r="5.5"/>
			<circle cx="610" cy="1576.3" r="5.5"/>
			<circle cx="607.8" cy="1558.8" r="5.5"/>
			<circle cx="625.8" cy="1564.3" r="5.5"/>
			<circle cx="800.8" cy="1701.3" r="5.5"/>
			<circle cx="768.3" cy="1733.3" r="5.5"/>
			<circle cx="581.5" cy="1508.5" r="5.5"/>
			<circle cx="529.8" cy="1440.5" r="5.5"/>
			<circle cx="535.3" cy="1426.3" r="5.5"/>
			<circle cx="604.5" cy="1474.3" r="5.5"/>
			<circle cx="668.3" cy="1485" r="5.5"/>
		</g>
	</g>
	<g id="aries">
		<g id="lines_4_">
			<polyline fill="none" stroke="#000000" stroke-width="2" stroke-miterlimit="10" points="344.3,1227.7 330.7,1241 327.6,1265.5 
				380.3,1418.3 			"/>
		</g>
		<g id="stars_4_">
			<circle cx="330.7" cy="1241" r="5.5"/>
			<circle cx="344.3" cy="1227.7" r="5.5"/>
			<circle cx="380.3" cy="1418.3" r="5"/>
			<circle cx="327.6" cy="1265.5" r="7.5"/>
		</g>
	</g>
	<g id="triangulum">
		<g id="lines_5_">
			<polyline fill="none" stroke="#000000" stroke-width="2" stroke-miterlimit="10" points="246.8,1292.8 265,1254.3 265,1305 
				247.3,1292.5 			"/>
		</g>
		<g id="stars_5_">
			<circle cx="247.3" cy="1292.5" r="7.5"/>
			<circle cx="265.5" cy="1304.5" r="5.5"/>
			<circle cx="265.5" cy="1254.3" r="5.5"/>
		</g>
	</g>
	<g id="cetus">
		<g id="lines_6_">
			<polyline fill="none" stroke="#000000" stroke-width="2" stroke-miterlimit="10" points="493.7,1328.7 511.7,1361.3 483,1368.8 
				457.5,1342.8 445.3,1294 493.7,1328.7 507,1306 502.7,1242.7 517.5,1176.3 544.2,1158.7 545.7,1014 488.8,950.2 492.2,1060.5 
				482,1076.7 517.5,1176.3 			"/>
		</g>
		<g id="stars_6_">
			<circle cx="493.7" cy="1328.7" r="7.5"/>
			<circle cx="511.7" cy="1361.3" r="7.5"/>
			<circle cx="502.7" cy="1242.7" r="7.5"/>
			<circle cx="545.7" cy="1014" r="7"/>
			<circle cx="483" cy="1368.8" r="5.5"/>
			<circle cx="457.5" cy="1342.8" r="5.5"/>
			<circle cx="445.3" cy="1294" r="5.5"/>
			<circle cx="507" cy="1306" r="5.5"/>
			<circle cx="517.5" cy="1176.3" r="5.5"/>
			<circle cx="544.2" cy="1158.7" r="5.5"/>
			<circle cx="482" cy="1076.7" r="5.5"/>
			<circle cx="492.2" cy="1060.5" r="5.5"/>
			<circle cx="488.8" cy="950.2" r="5.5"/>
		</g>
	</g>
	<g id="pisces">
		<g id="lines_7_">
			<polyline fill="none" stroke="#000000" stroke-width="2" stroke-miterlimit="10" points="239.2,1096.4 262.3,1117.3 
				276.3,1098.3 344.3,1156.3 395.5,1191 448.2,1215.3 409.7,1173 391.5,1109.3 380.2,1066 382,1022.8 400,899.5 409.2,853.8 
				425.2,821.8 445.3,806.8 448,832.6 432.5,854 409,854 			"/>
		</g>
		<g id="stars_7_">
			<circle cx="448.3" cy="1215.3" r="7.5"/>
			<circle cx="395.5" cy="1191" r="5.5"/>
			<circle cx="409.8" cy="1173" r="5.5"/>
			<circle cx="344.3" cy="1156.3" r="5.5"/>
			<circle cx="344.3" cy="1156.3" r="5.5"/>
			<circle cx="276.3" cy="1098.3" r="5.5"/>
			<circle cx="262.3" cy="1117.3" r="5.5"/>
			<circle cx="239.3" cy="1096.3" r="5.5"/>
			<circle cx="391.5" cy="1109.3" r="5.5"/>
			<circle cx="380.3" cy="1066" r="5.5"/>
			<circle cx="382" cy="1022.8" r="5.5"/>
			<circle cx="400" cy="899.5" r="5.5"/>
			<circle cx="409.3" cy="853.8" r="5.5"/>
			<circle cx="432.5" cy="853.8" r="5.5"/>
			<circle cx="448" cy="832.5" r="5.5"/>
			<circle cx="445.3" cy="806.8" r="5.5"/>
			<circle cx="425.3" cy="821.8" r="5.5"/>
		</g>
	</g>
	<g id="pegasus">
		<g id="stars_8_">
			<circle cx="256.3" cy="887.3" r="7.5"/>
			<circle cx="343.5" cy="905" r="7.5"/>
			<circle cx="337" cy="666.5" r="7.5"/>
			<circle cx="402" cy="705" r="7.5"/>
			<circle cx="528.5" cy="577.8" r="7.5"/>
			<circle cx="384.5" cy="504.3" r="5.5"/>
			<circle cx="328" cy="637" r="5"/>
			<circle cx="443.3" cy="683.3" r="5"/>
			<circle cx="521" cy="633.5" r="5"/>
		</g>
		<g id="lines_8_">
			<polygon fill="none" stroke="#000000" stroke-width="2" stroke-miterlimit="10" points="337,666.5 402,705 343.5,905 
				256.3,887.3 			"/>
			<polyline fill="none" stroke="#000000" stroke-width="2" stroke-miterlimit="10" points="384.5,504.3 328,637 337,666.5 			"/>
			<polyline fill="none" stroke="#000000" stroke-width="2" stroke-miterlimit="10" points="528.5,577.8 521,633.5 443.3,683.3 
				402,705 			"/>
		</g>
	</g>
	<g id="aquarius">
		<g id="stars_9_">
			<circle cx="507.3" cy="810.3" r="5.5"/>
			<circle cx="523.3" cy="820.8" r="5.5"/>
			<circle cx="588.7" cy="853.8" r="5.5"/>
			<circle cx="601.8" cy="836.8" r="5.5"/>
			<circle cx="579.7" cy="797.7" r="5.5"/>
			<circle cx="569.5" cy="781.2" r="5.5"/>
			<circle cx="532.3" cy="769.7" r="5.5"/>
			<circle cx="634.7" cy="704.7" r="5.5"/>
			<circle cx="636" cy="607.3" r="7.5"/>
			<circle cx="728.3" cy="567" r="5.5"/>
			<circle cx="560.8" cy="650.5" r="7.5"/>
			<circle cx="582.2" cy="686.3" r="5.5"/>
			<circle cx="547" cy="680.8" r="5.5"/>
			<circle cx="529" cy="689.7" r="5.5"/>
			<circle cx="519.3" cy="702.5" r="5.5"/>
		</g>
		<g id="lines_9_">
			<path fill="none" stroke="#000000" stroke-width="2" stroke-miterlimit="10" d="M728.3,567L636,607.3c-0.3,1.7-1.3,97.3-1.3,97.3
				l-101.9,65l36.8,11.5l10.2,16.5c0,0,22.3,38.8,22.2,39.2c-0.1,0.3-13.2,16.9-13.2,16.9s-64.9-32.7-65.3-32.9
				c-0.4-0.3-16-10.5-16-10.5l25-40.7"/>
			<polyline fill="none" stroke="#000000" stroke-width="2" stroke-miterlimit="10" points="519.3,702.5 529,689.7 547,680.8 
				560.8,650.5 636,607.3 			"/>
			<line fill="none" stroke="#000000" stroke-width="2" stroke-miterlimit="10" x1="582.2" y1="686.3" x2="560.8" y2="650.5"/>
		</g>
	</g>
	<g id="capricornus">
		<g id="stars_10_">
			<circle cx="668.6" cy="675.8" r="7.5"/>
			<circle cx="818.3" cy="560.6" r="7.5"/>
			<circle cx="816.8" cy="541.8" r="7.5"/>
			<circle cx="814.6" cy="581.3" r="5.5"/>
			<circle cx="806.7" cy="632.7" r="5.5"/>
			<circle cx="796.8" cy="648.3" r="5.5"/>
			<circle cx="721.8" cy="675" r="5.5"/>
			<circle cx="683.3" cy="665.2" r="5.5"/>
			<circle cx="715.7" cy="644.5" r="5.5"/>
			<circle cx="739" cy="630.6" r="5.5"/>
		</g>
		<g id="lines_10_">
			<path fill="none" stroke="#000000" stroke-width="2" stroke-miterlimit="10" d="M816.8,541.8l1.5,18.9l-3.7,20.7l-7.9,51.3
				l-9.8,15.7l-75,26.7l-53.2,0.8l14.7-10.6c0,0,31.6-20.7,32.3-20.7c0.7,0,23.3-13.9,23.3-13.9L816.8,541.8z"/>
		</g>
	</g>
	<g id="delphinus">
		<g id="stars_11_">
			<circle cx="649.5" cy="420.8" r="5.5"/>
			<circle cx="664.3" cy="428.8" r="5.5"/>
			<circle cx="664.3" cy="413.8" r="5.5"/>
			<circle cx="680.3" cy="420.8" r="5.5"/>
			<circle cx="714" cy="426.3" r="5.5"/>
		</g>
		<g id="lines_11_">
			<polyline fill="none" stroke="#000000" stroke-width="2" stroke-miterlimit="10" points="714,426.3 680.3,420.8 664.3,413.8 
				649.5,420.8 664.3,428.8 680.3,420.8 			"/>
		</g>
	</g>
	<g id="sagitta">
		<g id="stars_12_">
			<circle cx="781.5" cy="337.8" r="5.5"/>
			<circle cx="798.8" cy="337.8" r="5.5"/>
			<circle cx="811.8" cy="348" r="5.5"/>
			<circle cx="815" cy="334.3" r="5.5"/>
		</g>
		<g id="lines_12_">
			<polyline fill="none" stroke="#000000" stroke-width="2" stroke-miterlimit="10" points="781,338 799,338 811.8,348 			"/>
			<line fill="none" stroke="#000000" stroke-width="2" stroke-miterlimit="10" x1="815" y1="334.3" x2="799" y2="338"/>
		</g>
	</g>
	<g id="aquila">
		<g id="stars_13_">
			<circle cx="859.7" cy="427.3" r="7.5"/>
			<circle cx="811.8" cy="407.3" r="7.5"/>
			<circle cx="863" cy="357.3" r="7.5"/>
			<circle cx="816.8" cy="390.3" r="5.5"/>
			<circle cx="811.8" cy="424.3" r="5.5"/>
			<circle cx="826.7" cy="454.3" r="5.5"/>
			<circle cx="802" cy="476" r="5.5"/>
			<circle cx="874.3" cy="347" r="5.5"/>
			<circle cx="949" cy="476" r="5.5"/>
			<circle cx="966.7" cy="483.3" r="5.5"/>
		</g>
		<g id="lines_13_">
			<polyline fill="none" stroke="#000000" stroke-width="2" stroke-miterlimit="10" points="802,476 826.7,454.3 859.7,427.3 
				863,357.3 874.3,347 			"/>
			<polyline fill="none" stroke="#000000" stroke-width="2" stroke-miterlimit="10" points="816.8,390.3 811.8,407.3 859.7,427.3 
				949,476 966.7,483.3 			"/>
			<line fill="none" stroke="#000000" stroke-width="2" stroke-miterlimit="10" x1="812" y1="407" x2="812" y2="424"/>
		</g>
	</g>
	<g id="lyra">
		<g id="stars_14_">
			<circle cx="977.2" cy="219.3" r="5.5"/>
			<circle cx="987.5" cy="174.3" r="5.5"/>
			<circle cx="960.8" cy="180.7" r="5.5"/>
			<circle cx="995.3" cy="154.5" r="5.5"/>
			<circle cx="1015" cy="166.3" r="7.5"/>
			<circle cx="946.3" cy="230" r="7.5"/>
		</g>
		<g id="lines_14_">
			<polyline fill="none" stroke="#000000" stroke-width="2" stroke-miterlimit="10" points="995.3,154.5 1013.3,166.3 987.5,174.3 
				960.8,180.7 946.3,230 977.2,219.3 987.5,174.3 			"/>
		</g>
	</g>
	<g id="hercules">
		<g id="stars_15_">
			<circle cx="1350.2" cy="299.7" r="7.5"/>
			<circle cx="1404.2" cy="316" r="7.5"/>
			<circle cx="1350.2" cy="239.2" r="5.5"/>
			<circle cx="1432.2" cy="260.8" r="5.5"/>
			<circle cx="1292.5" cy="322.3" r="5.5"/>
			<circle cx="1390.5" cy="388.3" r="5.5"/>
		</g>
		<g id="lines_15_">
			<polyline fill="none" stroke="#000000" stroke-width="2" stroke-miterlimit="10" points="1292.3,322.3 1350,299.7 1350,239 
				1432.2,260.8 1404.2,316 1390.5,388.3 			"/>
			<line fill="none" stroke="#000000" stroke-width="2" stroke-miterlimit="10" x1="1350" y1="299.7" x2="1404.2" y2="316"/>
		</g>
	</g>
	<g id="corona_borealis">
		<g id="stars_16_">
			<circle cx="1518" cy="420.7" r="5.5"/>
			<circle cx="1506.5" cy="450.2" r="5.5"/>
			<circle cx="1523.5" cy="474.2" r="5.5"/>
			<circle cx="1539.3" cy="492.5" r="5.5"/>
			<circle cx="1561.5" cy="503.8" r="7.5"/>
			<circle cx="1591.2" cy="504.7" r="5.5"/>
			<circle cx="1600" cy="477.8" r="5.5"/>
		</g>
		<g id="lines_16_">
			<polyline fill="none" stroke="#000000" stroke-width="2" stroke-miterlimit="10" points="1600,477.8 1591.2,504.7 1561.5,503.8 
				1539.3,492.5 1523.5,474.2 1506.5,450.2 1518,420.7 			"/>
		</g>
	</g>
	<g id="ophiuchius">
		<g id="stars_17_">
			<circle cx="1190.8" cy="591.4" r="5.5"/>
			<circle cx="1199.3" cy="554.3" r="5.5"/>
			<circle cx="1275.2" cy="575.7" r="5.5"/>
			<circle cx="1316.8" cy="575.7" r="5.5"/>
			<circle cx="1320.2" cy="529.7" r="5.5"/>
			<circle cx="1335.5" cy="570.2" r="7.5"/>
			<circle cx="1293.7" cy="440.8" r="7.5"/>
			<circle cx="1212.2" cy="369" r="7.5"/>
			<circle cx="1173.8" cy="415" r="7.5"/>
			<circle cx="1158" cy="428.3" r="5.5"/>
			<circle cx="1145.8" cy="419.5" r="5.5"/>
			<circle cx="1132" cy="431.2" r="5.5"/>
		</g>
		<g id="lines_17_">
			<polygon fill="none" stroke="#000000" stroke-width="2" stroke-miterlimit="10" points="1173.9,415.2 1199.3,554.5 1275.2,576 
				1317,576 1335.3,570.1 1320.2,529.7 1293.7,440.8 1212.2,369 			"/>
			<polyline fill="none" stroke="#000000" stroke-width="2" stroke-miterlimit="10" points="1132,431.2 1145.8,419.5 1158,428.3 
				1173.9,415.2 			"/>
			<line fill="none" stroke="#000000" stroke-width="2" stroke-miterlimit="10" x1="1199.3" y1="554.3" x2="1190.8" y2="591.4"/>
		</g>
	</g>
	<g id="serpens_cauda">
		<g id="stars_18_">
			<circle cx="1199.3" cy="554.3" r="5.5"/>
			<circle cx="1143.4" cy="540.1" r="7.5"/>
			<circle cx="1102.3" cy="500" r="7.5"/>
			<circle cx="1059.8" cy="457.2" r="7"/>
			<circle cx="976.7" cy="441.9" r="5"/>
		</g>
		<g id="lines_18_">
			<polyline fill="none" stroke="#000000" stroke-width="2" stroke-miterlimit="10" points="976.7,441.9 1059.8,457.2 1102.3,500 
				1143.4,540.1 1199.3,554.3 			"/>
		</g>
	</g>
	<g id="serpens_caput">
		<g id="stars_19_">
			<circle cx="1335.5" cy="570.2" r="5"/>
			<circle cx="1387.3" cy="605.1" r="5"/>
			<circle cx="1418" cy="552.8" r="5"/>
			<circle cx="1473.4" cy="547.8" r="5"/>
			<circle cx="1478.4" cy="521.6" r="5"/>
			<circle cx="1479.5" cy="496.9" r="5"/>
			<circle cx="1479.5" cy="474.2" r="5"/>
			<circle cx="1501" cy="496.9" r="5"/>
			<circle cx="1458.9" cy="496.9" r="5"/>
			<circle cx="1452.6" cy="564.5" r="7.5"/>
		</g>
		<g id="lines_19_">
			<polyline fill="none" stroke="#000000" stroke-width="2" stroke-miterlimit="10" points="1335.3,570.1 1387.1,605.1 
				1417.9,552.7 1452.6,564.5 1473.4,547.7 1478.1,521.6 1479,496.9 1479,474 			"/>
			<polyline fill="none" stroke="#000000" stroke-width="2" stroke-miterlimit="10" points="1459,497 1479,497 1501,496.9 			"/>
		</g>
	</g>
	<g id="sagittarius">
		<g id="stars_20_">
			<circle cx="972.8" cy="624" r="7.5"/>
			<circle cx="986.8" cy="591.4" r="7.5"/>
			<circle cx="1034" cy="589.5" r="7.5"/>
			<circle cx="1046.3" cy="620.3" r="7.5"/>
			<circle cx="1040" cy="655.5" r="7.5"/>
			<circle cx="963.3" cy="607.3" r="5"/>
			<circle cx="1005.8" cy="600" r="5"/>
			<circle cx="1068.3" cy="567" r="5"/>
			<circle cx="1075.3" cy="626.3" r="5"/>
			<circle cx="1047.5" cy="674.8" r="5"/>
		</g>
		<g id="lines_20_">
			<polygon fill="none" stroke="#000000" stroke-width="2" stroke-miterlimit="10" points="1034,589.5 1005.8,600 972.8,624 
				1040,655.5 1046.3,620.3 			"/>
			<polyline fill="none" stroke="#000000" stroke-width="2" stroke-miterlimit="10" points="972.8,624 963.3,607.3 986.8,591.4 
				1005.8,600 			"/>
			<polyline fill="none" stroke="#000000" stroke-width="2" stroke-miterlimit="10" points="1068.3,567 1075.3,626.3 1047.5,674.8 
							"/>
			<polyline fill="none" stroke="#000000" stroke-width="2" stroke-miterlimit="10" points="1046.3,620.3 1075.3,626.3 1040,655.5 
							"/>
		</g>
	</g>
	<g id="grus">
		<g id="stars_21_">
			<circle cx="753" cy="780.7" r="5"/>
			<circle cx="751" cy="848.3" r="5"/>
			<circle cx="765.3" cy="874" r="5"/>
			<circle cx="788" cy="894.3" r="5"/>
			<circle cx="788" cy="838.7" r="5"/>
			<circle cx="740.3" cy="901" r="5"/>
		</g>
		<g id="lines_21_">
			<polyline fill="none" stroke="#000000" stroke-width="2" stroke-miterlimit="10" points="753,780.7 751,848.3 765.3,874 
				788,894.3 			"/>
			<polyline fill="none" stroke="#000000" stroke-width="2" stroke-miterlimit="10" points="788,838.7 765.3,874 740.3,901 			"/>
		</g>
	</g>
	<g id="indus">
		<g id="stars_22_">
			<circle cx="869.7" cy="772" r="5"/>
			<circle cx="893.7" cy="835" r="5"/>
		</g>
		<g id="lines_22_">
			<line fill="none" stroke="#000000" stroke-width="2" stroke-miterlimit="10" x1="869.7" y1="772" x2="893.7" y2="835"/>
		</g>
	</g>
	<g id="tucan">
		<g id="stars_23_">
			<circle cx="820.7" cy="938.7" r="5"/>
			<circle cx="855" cy="899.3" r="7.5"/>
		</g>
		<g id="lines_23_">
			<line fill="none" stroke="#000000" stroke-width="2" stroke-miterlimit="10" x1="855" y1="899.3" x2="820.7" y2="938.7"/>
		</g>
	</g>
	<g id="pavo">
		<g id="stars_24_">
			<circle cx="922.3" cy="821.7" r="7.5"/>
			<circle cx="932" cy="880.7" r="5.5"/>
			<circle cx="951.7" cy="870.7" r="5.5"/>
			<circle cx="1000" cy="865.2" r="5.5"/>
			<circle cx="1010.3" cy="891.8" r="5.5"/>
			<circle cx="974.7" cy="911" r="5.5"/>
			<circle cx="1048.7" cy="852.3" r="5.5"/>
		</g>
		<g id="lines_24_">
			<polyline fill="none" stroke="#000000" stroke-width="2" stroke-miterlimit="10" points="922.3,823.3 951.7,870.7 974.7,911 
				1010.3,891.8 1000,865.2 951.7,870.7 932,880.7 			"/>
			<line fill="none" stroke="#000000" stroke-width="2" stroke-miterlimit="10" x1="1048.7" y1="852.3" x2="1000" y2="865.2"/>
		</g>
	</g>
	<g id="ara">
		<g id="stars_25_">
			<circle cx="1068.3" cy="832.8" r="5.5"/>
			<circle cx="1083.3" cy="805.4" r="5.5"/>
			<circle cx="1083.3" cy="764.1" r="5.5"/>
			<circle cx="1104.9" cy="816.6" r="5.5"/>
			<circle cx="1104.9" cy="835" r="5.5"/>
		</g>
		<g id="lines_25_">
			<polyline fill="none" stroke="#000000" stroke-width="2" stroke-miterlimit="10" points="1105,835 1105,817 1083.3,805.4 
				1068.3,832.8 			"/>
			<line fill="none" stroke="#000000" stroke-width="2" stroke-miterlimit="10" x1="1083" y1="764" x2="1083" y2="805"/>
		</g>
	</g>
	<g id="phoenix">
		<g id="stars_26_">
			<circle cx="720" cy="1068" r="5.5"/>
			<circle cx="751.7" cy="1060.3" r="5.5"/>
			<circle cx="786.3" cy="1032" r="5.5"/>
			<circle cx="699.3" cy="992.3" r="5.5"/>
			<circle cx="714.5" cy="991" r="5.5"/>
			<circle cx="725.5" cy="972" r="5.5"/>
			<circle cx="714.5" cy="925.7" r="5.5"/>
			<circle cx="759" cy="953.3" r="5.5"/>
			<circle cx="729.3" cy="1036" r="7.5"/>
		</g>
		<g id="lines_26_">
			<polyline fill="none" stroke="#000000" stroke-width="2" stroke-miterlimit="10" points="714.5,925.7 725.5,972 714.5,991 
				699.3,992.3 			"/>
			<line fill="none" stroke="#000000" stroke-width="2" stroke-miterlimit="10" x1="729.3" y1="1036" x2="751.7" y2="1060.3"/>
			<polyline fill="none" stroke="#000000" stroke-width="2" stroke-miterlimit="10" points="786.3,1032 714.5,991 729.3,1036 
				720,1068 			"/>
		</g>
	</g>
	<g id="hydrus">
		<g id="stars_27_">
			<circle cx="926.5" cy="1006.3" r="5.5"/>
			<circle cx="941.3" cy="1079.5" r="5.5"/>
			<circle cx="838.8" cy="1068" r="5.5"/>
		</g>
		<g id="lines_27_">
			<polyline fill="none" stroke="#000000" stroke-width="2" stroke-miterlimit="10" points="926.5,1006.3 941.3,1079.5 838.8,1068 
							"/>
		</g>
	</g>
	<g id="octans">
		<g id="stars_28_">
			<circle cx="955.8" cy="957" r="5.5"/>
			<circle cx="954.3" cy="984.8" r="5.5"/>
			<circle cx="1052" cy="987.8" r="5.5"/>
		</g>
		<g id="lines_28_">
			<polygon fill="none" stroke="#000000" stroke-width="2" stroke-miterlimit="10" points="955.8,957 954.3,984.8 1052,987.8 			"/>
		</g>
	</g>
	<g id="crux">
		<g id="stars_29_">
			<circle cx="1215.3" cy="1032.5" r="5.5"/>
			<circle cx="1188" cy="1020.5" r="5.5"/>
			<circle cx="1225.2" cy="1017.8" r="5.5"/>
			<circle cx="1209.8" cy="1002.7" r="5.5"/>
		</g>
		<g id="lines_29_">
			<line fill="none" stroke="#000000" stroke-width="2" stroke-miterlimit="10" x1="1188" y1="1020.5" x2="1225.2" y2="1017.8"/>
			<line fill="none" stroke="#000000" stroke-width="2" stroke-miterlimit="10" x1="1209.8" y1="1002.7" x2="1215.3" y2="1032.5"/>
		</g>
	</g>
	<g id="lupus">
		<g id="stars_30_">
			<circle cx="1206.3" cy="855" r="5.5"/>
			<circle cx="1244" cy="866.3" r="5.5"/>
			<circle cx="1255.2" cy="839.7" r="5.5"/>
			<circle cx="1229.5" cy="821.2" r="5.5"/>
			<circle cx="1255.2" cy="805.8" r="5.5"/>
			<circle cx="1273" cy="783.3" r="5.5"/>
			<circle cx="1257.2" cy="742.8" r="5.5"/>
			<circle cx="1224.8" cy="756.5" r="5.5"/>
			<circle cx="1237.2" cy="795.2" r="7.5"/>
		</g>
		<g id="lines_30_">
			<polygon fill="none" stroke="#000000" stroke-width="2" stroke-miterlimit="10" points="1206.3,855.1 1243.9,866.4 1255,839.7 
				1255,806 1273,783.3 1257.2,742.8 1224.8,756.5 1237.2,795.2 1229.5,821.2 			"/>
		</g>
	</g>
	<g id="eridanus">
		<g id="stars_31_">
			<circle cx="808" cy="1068" r="7.5"/>
			<circle cx="780" cy="1099.8" r="5.5"/>
			<circle cx="789.8" cy="1119.8" r="5.5"/>
			<circle cx="748.7" cy="1186.7" r="5.5"/>
			<circle cx="799.8" cy="1308" r="5.5"/>
			<circle cx="812" cy="1316.5" r="5.5"/>
			<circle cx="817.5" cy="1341.8" r="5.5"/>
			<circle cx="705.3" cy="1319.5" r="5.5"/>
			<circle cx="664" cy="1288.3" r="5.5"/>
			<circle cx="658.5" cy="1269.3" r="5.5"/>
			<circle cx="612" cy="1248.3" r="5.5"/>
			<circle cx="587.8" cy="1258.8" r="5.5"/>
			<circle cx="574.5" cy="1299.5" r="5.5"/>
			<circle cx="622.8" cy="1363.3" r="5.5"/>
			<circle cx="638.5" cy="1379.5" r="5.5"/>
			<circle cx="683.5" cy="1382.5" r="7.5"/>
			<circle cx="710.2" cy="1474.3" r="5.5"/>
			<circle cx="779.8" cy="1506" r="5.5"/>
		</g>
		<g id="lines_31_">
			<path fill="none" stroke="#000000" stroke-width="2" stroke-miterlimit="10" d="M779.8,1506l-69.6-31.8c0,0-23.9-92.8-26.7-92.8
				s-45-2-45-2l-15.8-16.2l-48.3-63.8l13.3-40.8l24.3-10.5l46.5,21l5.5,19l41.3,31.3l112.3,22.3l-5.5-25.3l-12.2-8.5l-51.2-121.3
				l41.2-66.8l-9.8-20l28-31.8"/>
		</g>
	</g>
	<g id="dorado">
		<g id="stars_32_">
			<circle cx="894" cy="1205.2" r="5.5"/>
			<circle cx="965.5" cy="1183" r="5.5"/>
		</g>
		<g id="lines_32_">
			<line fill="none" stroke="#000000" stroke-width="2" stroke-miterlimit="10" x1="894" y1="1205.2" x2="965.5" y2="1183"/>
		</g>
	</g>
	<g id="carina">
		<g id="stars_33_">
			<circle cx="990.8" cy="1253.3" r="7.5"/>
			<circle cx="1090.5" cy="1194.5" r="7.5"/>
			<circle cx="1085.8" cy="1241.8" r="5.5"/>
			<circle cx="1133.3" cy="1169.5" r="5.5"/>
			<circle cx="1156.8" cy="1125.5" r="5.5"/>
			<circle cx="1162.3" cy="1111.3" r="5.5"/>
			<circle cx="1149.5" cy="1095.5" r="5.5"/>
			<circle cx="1109.5" cy="1093.5" r="5.5"/>
			<circle cx="1088.5" cy="1120" r="5.5"/>
			<circle cx="1123" cy="1128" r="5.5"/>
		</g>
		<g id="lines_33_">
			<polyline fill="none" stroke="#000000" stroke-width="2" stroke-miterlimit="10" points="990.8,1253.3 1085.8,1241.8 
				1090.5,1194.5 1133.3,1169.5 1156.8,1125.5 1162.3,1111.3 1149.5,1095.5 1109.5,1093.5 1088.5,1120 1123,1128 			"/>
		</g>
	</g>
	<g id="vela">
		<g id="stars_34_">
			<circle cx="1128.5" cy="1210.8" r="5.5"/>
			<circle cx="1160.3" cy="1187" r="5.5"/>
			<circle cx="1186.3" cy="1162.3" r="5.5"/>
			<circle cx="1242.8" cy="1136.3" r="5.5"/>
			<circle cx="1229.3" cy="1249" r="5.5"/>
			<circle cx="1118.8" cy="1267.8" r="7.5"/>
			<circle cx="1191.8" cy="1253.3" r="7.5"/>
		</g>
		<g id="lines_34_">
			<polygon fill="none" stroke="#000000" stroke-width="2" stroke-miterlimit="10" points="1242.8,1136.3 1186.3,1162.3 
				1160.3,1187 1128.5,1210.8 1118.8,1267.8 1191.8,1253.3 1229.3,1249 			"/>
		</g>
	</g>
	<g id="puppis">
		<g id="stars_35_">
			<circle cx="1003.2" cy="1315.5" r="5.5"/>
			<circle cx="1019.7" cy="1267.8" r="5.5"/>
			<circle cx="1069" cy="1305.5" r="5.5"/>
			<circle cx="1062.5" cy="1348.8" r="5.5"/>
			<circle cx="1121.7" cy="1312.5" r="5.5"/>
		</g>
		<g id="lines_35_">
			<polygon fill="none" stroke="#000000" stroke-width="2" stroke-miterlimit="10" points="1019.7,1267.8 1003.2,1315.5 
				1069,1305.5 1062.5,1348.8 1121.7,1312.5 1069,1305.5 			"/>
		</g>
	</g>
	<g id="pyxis">
		<g id="stars_36_">
			<circle cx="1180.3" cy="1321" r="5.5"/>
			<circle cx="1196.2" cy="1331.8" r="5.5"/>
			<circle cx="1229.2" cy="1356.8" r="5.5"/>
		</g>
		<g id="lines_36_">
			<polyline fill="none" stroke="#000000" stroke-width="2" stroke-miterlimit="10" points="1180.3,1321 1196.2,1331.8 
				1229.2,1356.8 			"/>
		</g>
	</g>
	<g id="canis_major">
		<g id="stars_37_">
			<circle cx="1026" cy="1438" r="5.5"/>
			<circle cx="1046" cy="1443.5" r="5.5"/>
			<circle cx="1036.7" cy="1465.7" r="5.5"/>
			<circle cx="989.3" cy="1471.2" r="5.5"/>
			<circle cx="969" cy="1396.3" r="5.5"/>
			<circle cx="1024.3" cy="1493" r="5.5"/>
			<circle cx="1015" cy="1523" r="5.5"/>
			<circle cx="1040.5" cy="1507" r="5.5"/>
			<circle cx="1001" cy="1493" r="7.5"/>
			<circle cx="958.3" cy="1473" r="7.5"/>
			<circle cx="1040.5" cy="1409.3" r="7.5"/>
			<circle cx="1057" cy="1427" r="7.5"/>
			<circle cx="1082.7" cy="1398" r="7.5"/>
		</g>
		<g id="lines_37_">
			<polyline fill="none" stroke="#000000" stroke-width="2" stroke-miterlimit="10" points="1082.5,1398 1056.9,1427 1046,1443.5 
				1036.6,1465.7 1001,1493 1024,1493 1015,1523 1040.5,1507 1024,1493 			"/>
			<polyline fill="none" stroke="#000000" stroke-width="2" stroke-miterlimit="10" points="958.3,1473 989.3,1471.2 1026,1438 
				1040.5,1409.3 969,1396.3 			"/>
			<line fill="none" stroke="#000000" stroke-width="2" stroke-miterlimit="10" x1="1040.5" y1="1409.3" x2="1056.9" y2="1427"/>
		</g>
	</g>
	<g id="cancer">
		<g id="stars_38_">
			<circle cx="1246.5" cy="1597.9" r="5.5"/>
			<circle cx="1374.5" cy="1600.8" r="5.5"/>
			<circle cx="1380" cy="1555.4" r="5.5"/>
			<circle cx="1382.3" cy="1627.4" r="5.5"/>
			<circle cx="1410" cy="1656.9" r="5.5"/>
		</g>
		<g id="lines_38_">
			<polyline fill="none" stroke="#000000" stroke-width="2" stroke-miterlimit="10" points="1246.5,1597.9 1374.5,1600.8 
				1382.3,1627.4 1410,1656.9 			"/>
			<line fill="none" stroke="#000000" stroke-width="2" stroke-miterlimit="10" x1="1380" y1="1555.4" x2="1374.5" y2="1600.8"/>
		</g>
	</g>
	<g id="hydra">
		<g id="stars_39_">
			<circle cx="1392.8" cy="860.5" r="5.5"/>
			<circle cx="1449.2" cy="954.7" r="5.5"/>
			<circle cx="1373.3" cy="1125.4" r="5.5"/>
			<circle cx="1405" cy="1279.8" r="5.5"/>
			<circle cx="1401.5" cy="1321.6" r="5.5"/>
			<circle cx="1359.4" cy="1335" r="5.5"/>
			<circle cx="1362.4" cy="1397.1" r="5.5"/>
			<circle cx="1373.5" cy="1478.6" r="5.5"/>
			<circle cx="1352.9" cy="1520.9" r="5.5"/>
			<circle cx="1344.6" cy="1532.4" r="5.5"/>
			<circle cx="1329.1" cy="1534.5" r="5.5"/>
			<circle cx="1317.9" cy="1521.6" r="5.5"/>
			<circle cx="1328.1" cy="1513" r="5"/>
		</g>
		<g id="lines_39_">
			<polyline fill="none" stroke="#000000" stroke-width="2" stroke-miterlimit="10" points="1392.8,860.5 1449.2,954.7 
				1373.3,1125.4 1405,1279.8 1401.5,1321.6 1359.4,1335 1362.4,1397.1 1373.5,1478.6 1352.9,1520.9 1344.6,1532.4 1329.1,1534.5 
				1317.9,1521.6 1328.1,1513 1352.9,1520.9 			"/>
		</g>
	</g>
	<g id="leo">
		<g id="stars_40_">
			<circle cx="1464.1" cy="1465.8" r="5"/>
			<circle cx="1545.9" cy="1440.4" r="5"/>
			<circle cx="1602.6" cy="1452.1" r="5"/>
			<circle cx="1582.1" cy="1510.4" r="5"/>
			<circle cx="1545.6" cy="1512.9" r="5"/>
			<circle cx="1591.7" cy="1232.7" r="5.5"/>
			<circle cx="1615.8" cy="1238.2" r="5.5"/>
			<circle cx="1637.2" cy="1260.5" r="5.5"/>
			<circle cx="1683.3" cy="1278" r="5.5"/>
			<circle cx="1679.7" cy="1158.7" r="7.5"/>
			<circle cx="1584.2" cy="1429.8" r="7.5"/>
			<circle cx="1527.3" cy="1424.8" r="7.5"/>
		</g>
		<g id="lines_40_">
			<polyline fill="none" stroke="#000000" stroke-width="2" stroke-miterlimit="10" points="1591.7,1232.7 1615.8,1238.2 
				1637.2,1260.5 1527.3,1424.8 1545.9,1440.4 1584.2,1429.8 1683.3,1278 1637.2,1260.5 			"/>
			<line fill="none" stroke="#000000" stroke-width="2" stroke-miterlimit="10" x1="1679.7" y1="1159.5" x2="1683.3" y2="1278"/>
			<polyline fill="none" stroke="#000000" stroke-width="2" stroke-miterlimit="10" points="1545.6,1512.9 1582.1,1510.4 
				1602.6,1452.1 1584.2,1429.8 			"/>
			<line fill="none" stroke="#000000" stroke-width="2" stroke-miterlimit="10" x1="1464.1" y1="1465.8" x2="1527.3" y2="1424.8"/>
		</g>
	</g>
	<g id="corvus">
		<g id="stars_41_">
			<circle cx="1442.9" cy="1066.8" r="5.5"/>
			<circle cx="1482.1" cy="1072.3" r="5.5"/>
			<circle cx="1485.5" cy="1041.9" r="5.5"/>
			<circle cx="1451.1" cy="1040.8" r="5.5"/>
		</g>
		<g id="lines_41_">
			<polygon fill="none" stroke="#000000" stroke-width="2" stroke-miterlimit="10" points="1451.1,1040.8 1442.9,1066.8 
				1482.1,1072.3 1485.5,1041.9 			"/>
		</g>
	</g>
	<g id="virgo">
		<g id="stars_42_">
			<circle cx="1621.5" cy="1144.1" r="5.5"/>
			<circle cx="1642.5" cy="1116.1" r="5.5"/>
			<circle cx="1574.1" cy="1126.8" r="5.5"/>
			<circle cx="1591.6" cy="1064.6" r="5.5"/>
			<circle cx="1594.3" cy="1021.9" r="5.5"/>
			<circle cx="1588" cy="990.6" r="5.5"/>
			<circle cx="1622.3" cy="964" r="5.5"/>
			<circle cx="1552.3" cy="943.7" r="5.5"/>
			<circle cx="1586.1" cy="907" r="5.5"/>
			<circle cx="1504" cy="921" r="5.5"/>
			<circle cx="1577.3" cy="803" r="5.5"/>
			<circle cx="1531" cy="712" r="5.5"/>
			<circle cx="1503.7" cy="786.7" r="5.5"/>
			<circle cx="1480.3" cy="739.7" r="5.5"/>
			<circle cx="1680" cy="949.2" r="7.5"/>
		</g>
		<g id="lines_42_">
			<polyline fill="none" stroke="#000000" stroke-width="2" stroke-miterlimit="10" points="1591.6,1064.6 1642.5,1116.1 
				1621.5,1144.1 1574.1,1126.8 1591.6,1064.6 1594.3,1021.9 1588,990.6 1552.3,943.7 1586.1,907 1622.3,964 1588,990.6 			"/>
			<line fill="none" stroke="#000000" stroke-width="2" stroke-miterlimit="10" x1="1680" y1="949.2" x2="1622.3" y2="964"/>
			<line fill="none" stroke="#000000" stroke-width="2" stroke-miterlimit="10" x1="1504" y1="921" x2="1552.3" y2="943.7"/>
			<polyline fill="none" stroke="#000000" stroke-width="2" stroke-miterlimit="10" points="1480.3,739.7 1503.7,786.7 1586.1,907 
				1577.3,803 1531,712 			"/>
		</g>
	</g>
	<g id="libra">
		<g id="stars_43_">
			<circle cx="1416.3" cy="746.5" r="7.5"/>
			<circle cx="1418.2" cy="680" r="7.5"/>
			<circle cx="1368.3" cy="680" r="5.5"/>
			<circle cx="1356.5" cy="758.3" r="5.5"/>
			<circle cx="1333.7" cy="710.2" r="5.5"/>
			<circle cx="1310.2" cy="721" r="5.5"/>
		</g>
		<g id="lines_43_">
			<polyline fill="none" stroke="#000000" stroke-width="2" stroke-miterlimit="10" points="1356.5,758.3 1368.3,680 1416.3,746.5 
							"/>
			<polyline fill="none" stroke="#000000" stroke-width="2" stroke-miterlimit="10" points="1310.1,721 1333.6,710.2 1368.3,680 
				1418,680 			"/>
		</g>
	</g>
	<g id="scorpius">
		<g id="stars_44_">
			<circle cx="1150.4" cy="702.9" r="5.5"/>
			<circle cx="1141.3" cy="691.4" r="5.5"/>
			<circle cx="1126.8" cy="696.9" r="5.5"/>
			<circle cx="1114.9" cy="702.4" r="5.5"/>
			<circle cx="1120.4" cy="724" r="5.5"/>
			<circle cx="1149.8" cy="742.8" r="5.5"/>
			<circle cx="1175.5" cy="748.3" r="5.5"/>
			<circle cx="1190.6" cy="728.3" r="5.5"/>
			<circle cx="1254.8" cy="681" r="5.5"/>
			<circle cx="1286.3" cy="714.9" r="5.5"/>
			<circle cx="1290.9" cy="697.1" r="5.5"/>
			<circle cx="1300.6" cy="682.3" r="5.5"/>
			<circle cx="1303.6" cy="663.5" r="5.5"/>
			<circle cx="1292.6" cy="650.5" r="5.5"/>
			<circle cx="1269" cy="681" r="5.5"/>
			<circle cx="1207" cy="709.1" r="7.5"/>
			<circle cx="1237.8" cy="684" r="7.5"/>
		</g>
		<g id="lines_44_">
			<polyline fill="none" stroke="#000000" stroke-width="2" stroke-miterlimit="10" points="1292.6,650.5 1303.6,663.5 
				1300.6,682.3 1269,681 1254.8,681 1237.8,684 1207,709.1 1190.6,728.3 1175.5,748.3 1149.8,742.8 1120.4,724 1114.9,702.4 
				1126.8,696.9 1141.3,691.4 1150.4,702.9 			"/>
			<polyline fill="none" stroke="#000000" stroke-width="2" stroke-miterlimit="10" points="1286.3,714.9 1290.9,697.1 
				1300.6,682.3 			"/>
		</g>
	</g>
	<g id="bootes">
		<g id="stars_45_">
			<circle cx="1586.5" cy="677.8" r="5.5"/>
			<circle cx="1674.5" cy="788.3" r="5.5"/>
			<circle cx="1659.8" cy="637.5" r="5.5"/>
			<circle cx="1710" cy="654.3" r="5.5"/>
			<circle cx="1647.5" cy="523.5" r="5.5"/>
			<circle cx="1721.8" cy="523.5" r="5.5"/>
			<circle cx="1760.8" cy="613.5" r="5.5"/>
			<circle cx="1651.5" cy="727.5" r="7.5"/>
		</g>
		<g id="lines_45_">
			<polyline fill="none" stroke="#000000" stroke-width="2" stroke-miterlimit="10" points="1586.3,678 1651.4,727.6 1709.9,654.3 
				1760.7,613.8 1721.8,524 1647,524 1659.8,637.5 1651.4,727.6 1674.5,788.3 			"/>
		</g>
	</g>
</g>
<g id="Labels">
	
		<text id="label_x5F_lyra" transform="matrix(-0.9954 9.595001e-002 -9.595001e-002 -0.9954 994.749 248.8885)" font-family="'BookmanOldStyle'" font-size="21">Lyra</text>
	
		<text id="label_x5F_hercules" transform="matrix(-0.9542 -0.2991 0.2991 -0.9542 1330.5343 266.3282)" font-family="'BookmanOldStyle'" font-size="21">Hercules</text>
	<text id="label_x5F_serpens_x5F_cadua" transform="matrix(-0.9542 -0.2991 0.2991 -0.9542 1092.4171 422.5)"><tspan x="0" y="0" font-family="'BookmanOldStyle'" font-size="21">Serpens</tspan><tspan x="0" y="25.2" font-family="'BookmanOldStyle'" font-size="21">Cauda</tspan></text>
	
		<text id="label_x5F_ophiuchus" transform="matrix(-0.6587 -0.7524 0.7524 -0.6587 1295.2219 519.5125)" font-family="'BookmanOldStyle'" font-size="21">Ophiuchus</text>
	
		<text id="label_x5F_leo" transform="matrix(0.5478 -0.8366 0.8366 0.5478 1600.1921 1373.4111)" font-family="'BookmanOldStyle'" font-size="21">Leo</text>
	
		<text id="label_x5F_bootes" transform="matrix(-0.5208 -0.8537 0.8537 -0.5208 1724.6771 605.1246)" font-family="'BookmanOldStyle'" font-size="21">Boötes</text>
	
		<text id="label_x5F_cancer" transform="matrix(0.7729 -0.6345 0.6345 0.7729 1391.3074 1710.1309)" font-family="'BookmanOldStyle'" font-size="24.2915">Cancer</text>
	
		<text id="label_x5F_canis_x5F_major" transform="matrix(0.9992 4.028884e-002 -4.028884e-002 0.9992 1063.5001 1479.7513)" font-family="'BookmanOldStyle'" font-size="23.0767">Canis Major</text>
	
		<text id="label_x5F_canis_x5F_minor" transform="matrix(0.9992 4.028884e-002 -4.028884e-002 0.9992 1078.6669 1653.7513)" font-family="'BookmanOldStyle'" font-size="23.0767">Canis Minor</text>
	
		<text id="label_x5F_gemini" transform="matrix(0.9992 4.028884e-002 -4.028884e-002 0.9992 952.3337 1791.0005)" font-family="'BookmanOldStyle'" font-size="23.0767">Gemini</text>
	
		<text id="label_x5F_orion" transform="matrix(0.9992 4.028884e-002 -4.028884e-002 0.9992 871.0003 1589.5005)" font-family="'BookmanOldStyle'" font-size="23.0767">Orion</text>
	
		<text id="label_x5F_taurus" transform="matrix(0.6292 0.7772 -0.7772 0.6292 518.55 1489.4028)" font-family="'BookmanOldStyle'" font-size="23.0767">Taurus</text>
	<text id="label_x5F_corona_x5F_borealis" transform="matrix(-0.6745 -0.7382 0.7382 -0.6745 1608.7865 448.3336)"><tspan x="0" y="0" font-family="'BookmanOldStyle'" font-size="19.6067">Corona</tspan><tspan x="0" y="23.5" font-family="'BookmanOldStyle'" font-size="19.6067">Borealis</tspan></text>
	
		<text id="label_x5F_pegasus" transform="matrix(-0.2333 0.9724 -0.9724 -0.2333 340.4951 741.2294)" font-family="'BookmanOldStyle'" font-size="24.8814">Pegasus</text>
	
		<text id="label_x5F_triangulum" transform="matrix(0.3576 0.9339 -0.9339 0.3576 186.3312 1253.2495)" font-family="'BookmanOldStyle'" font-size="22.2777">Triangulum</text>
	
		<text id="label_x5F_pisces" transform="matrix(4.225270e-002 0.9991 -0.9991 4.225270e-002 340.4947 1011.0024)" font-family="'BookmanOldStyle'" font-size="26.5121">Pisces</text>
	
		<text id="label_x5F_cetus" transform="matrix(0.2196 0.9756 -0.9756 0.2196 453.6045 1101.998)" font-family="'BookmanOldStyle'" font-size="26.5121">Cetus</text>
	
		<text id="label_x5F_aries" transform="matrix(0.2196 0.9756 -0.9756 0.2196 361.8334 1284.999)" font-family="'BookmanOldStyle'" font-size="26.5121">Aries</text>
	<text id="label_x5F_serpens_x5F_caput" transform="matrix(-0.74 -0.6726 0.6726 -0.74 1422.9998 516.6249)"><tspan x="0" y="0" font-family="'BookmanOldStyle'" font-size="21">Serpens</tspan><tspan x="0" y="25.2" font-family="'BookmanOldStyle'" font-size="21">Caput</tspan></text>
	
		<text id="label_x5F_eridanus" transform="matrix(0.6889 0.7249 -0.7249 0.6889 672.2897 1225.9999)" font-family="'BookmanOldStyle'" font-size="23.2422">Eridanus</text>
	
		<text id="label_x5F_hydra" transform="matrix(0.665 -0.7469 0.7469 0.665 1408.9705 1363.035)" font-family="'BookmanOldStyle'" font-size="23.2287">Hydra</text>
	
		<text id="label_x5F_corvus" transform="matrix(6.981783e-002 -0.9976 0.9976 6.981783e-002 1515.9253 1100.3519)" font-family="'BookmanOldStyle'" font-size="22.4915">Corvus</text>
	
		<text id="label_x5F_virgo" transform="matrix(-0.1028 -0.9947 0.9947 -0.1028 1654.3984 912.4996)" font-family="'BookmanOldStyle'" font-size="24.6741">Virgo</text>
	
		<text id="label_x5F_libra" transform="matrix(-0.5581 -0.8298 0.8298 -0.5581 1464.9425 685.4685)" font-family="'BookmanOldStyle'" font-size="21">Libra</text>
	
		<text id="label_x5F_lupus" transform="matrix(-0.4662 -0.8847 0.8847 -0.4662 1334.9446 830.3533)" font-family="'BookmanOldStyle'" font-size="24.8966">Lupus</text>
	
		<text id="label_x5F_ara" transform="matrix(-0.4662 -0.8847 0.8847 -0.4662 1141.2502 816.6249)" font-family="'BookmanOldStyle'" font-size="27.8759">Ara</text>
	
		<text id="label_x5F_pavo" transform="matrix(-0.963 0.2693 -0.2693 -0.963 1019.1302 820.1875)" font-family="'BookmanOldStyle'" font-size="27.8759">Pavo</text>
	
		<text id="label_x5F_indus" transform="matrix(-0.9444 0.3288 -0.3288 -0.9444 966.334 750.9994)" font-family="'BookmanOldStyle'" font-size="27.8759">Indus</text>
	
		<text id="label_x5F_grus" transform="matrix(-0.462 0.8869 -0.8869 -0.462 800.1967 760.2028)" font-family="'BookmanOldStyle'" font-size="27.8759">Grus</text>
	
		<text id="label_x5F_tucan" transform="matrix(-0.6077 0.7942 -0.7942 -0.6077 837.8336 865.167)" font-family="'BookmanOldStyle'" font-size="27.8759">Tucan</text>
	
		<text id="label_x5F_phoenix" transform="matrix(0.1048 0.9945 -0.9945 0.1048 672.2895 1012.3334)" font-family="'BookmanOldStyle'" font-size="27.8759">Phoenix</text>
	
		<text id="label_x5F_dorado" transform="matrix(0.8714 0.4905 -0.4905 0.8714 830.2963 1135.9241)" font-family="'BookmanOldStyle'" font-size="27.8759">Dorado</text>
	
		<text id="label_x5F_hydrus" transform="matrix(5.179166e-002 0.9987 -0.9987 5.179166e-002 892.4261 953.2836)" font-family="'BookmanOldStyle'" font-size="27.8759">Hydrus</text>
	
		<text id="label_x5F_carina" transform="matrix(0.9282 -0.372 0.372 0.9282 1050.1671 1188.697)" font-family="'BookmanOldStyle'" font-size="27.8759">Carina</text>
	
		<text id="label_x5F_vela" transform="matrix(0.8179 -0.5754 0.5754 0.8179 1170.4634 1237.822)" font-family="'BookmanOldStyle'" font-size="27.8759">Vela</text>
	
		<text id="label_x5F_crux" transform="matrix(2.066903e-002 -0.9998 0.9998 2.066903e-002 1260.6661 1053.6686)" font-family="'BookmanOldStyle'" font-size="27.8759">Crux</text>
	
		<text id="label_x5F_octans" transform="matrix(-1 -6.696445e-003 6.696445e-003 -1 1076.4989 943.6668)" font-family="'BookmanOldStyle'" font-size="27.8759">Octans</text>
	
		<text id="label_x5F_puppis" transform="matrix(0.9856 0.1689 -0.1689 0.9856 950.7667 1339.9961)" font-family="'BookmanOldStyle'" font-size="27.8759">Puppis</text>
	
		<text id="label_x5F_pyxis" transform="matrix(0.7223 -0.6915 0.6915 0.7223 1229.1674 1396.3336)" font-family="'BookmanOldStyle'" font-size="23.9783">Pyxis</text>
	
		<text id="label_x5F_scorpius" transform="matrix(-0.7446 -0.6675 0.6675 -0.7446 1196.2511 685.4993)" font-family="'BookmanOldStyle'" font-size="22.263">Scorpius</text>
	
		<text id="label_x5F_sagittarius" transform="matrix(-0.8785 -0.4778 0.4778 -0.8785 1043.1666 702.8756)" font-family="'BookmanOldStyle'" font-size="22.0722">Sagittarius</text>
	
		<text id="label_x5F_aquila" transform="matrix(-0.8956 0.4448 -0.4448 -0.8956 880.4543 465.8851)" font-family="'BookmanOldStyle'" font-size="21">Aquila</text>
	
		<text id="label_x5F_capricornus" transform="matrix(-0.7388 0.6448 -0.7048 -0.7094 852.167 626.2501)" font-family="'BookmanOldStyle'" font-size="23.5456">Capricornus</text>
	
		<text id="label_x5F_delphinus" transform="matrix(-0.8571 0.5151 -0.5151 -0.8571 692.7234 436.9169)" font-family="'BookmanOldStyle'" font-size="22.6427">Delphinus</text>
	
		<text id="label_x5F_sagitta" transform="matrix(-0.8571 0.5151 -0.5151 -0.8571 807.5002 286.1259)" font-family="'BookmanOldStyle'" font-size="29.5821">Sagitta</text>
	
		<text id="label_x5F_aquarius" transform="matrix(-0.836 0.5488 -0.5488 -0.836 601.8336 692.9553)" font-family="'BookmanOldStyle'" font-size="23.6197">Aquarius</text>
</g>
</svg>
